<svg xmlns="http://www.w3.org/2000/svg" xmlns:xlink="http://www.w3.org/1999/xlink" width="399" height="140" viewBox="0 0 399 140"><defs><style>.a{fill:#bd110c;}.b{opacity:0.5;clip-path:url(#a);}.c{fill:rgba(189,17,12,0.51);}</style><clipPath id="a"><rect class="a" width="399" height="140" rx="20"/></clipPath></defs><g class="b"><g transform="translate(-341.12 -268.117)"><path class="c" d="M2,1176.587v-115.78c2.26-.041,4.521-.052,6.779-.127,12.931-.435,25.867-1.331,38.791-1.236,24.955.184,49.906.855,74.852,1.486a50.325,50.325,0,0,0,17.969-2.525c5.89-2.039,11.788-4.069,17.605-6.239,14.754-5.5,30.285-8.171,46.436-9.016,8.373-.438,16.709-1.438,25.035-2.347s16.579-2.292,24.926-2.973a56.358,56.358,0,0,1,27.527,4.234c7.609,3.344,12.984,8.247,15.2,15.182,3.774,11.81-4.473,22.094-19.277,23.745a85.661,85.661,0,0,1-12.36.248c-6.128-.211-12.238-.964-18.361-1.021-13.868-.13-22.912,5.152-27.566,15.792a33.948,33.948,0,0,0-1.677,22.439c4.574,18.191,17.289,31.582,37.58,39.809,27.355,11.091,55.658,12.038,84.114,2.953,26.421-8.435,45.586-23.687,59.46-43.537,9.611-13.751,14.689-28.719,17.919-44.2,1.266-6.072,2.957-12.094,4.739-18.083a20.1,20.1,0,0,1,5.7-8.856c4.224-3.965,9.532-5.376,15.828-4.386,1.306.205,2.585.533,3.867.828a215.254,215.254,0,0,1,50.444,18.651c5.523,2.842,11.021,5.721,16.646,8.425a141.525,141.525,0,0,0,58.151,13.764,237.8,237.8,0,0,0,39.027-2.555c16.571-2.284,33.069-4.976,49.864-5.986,5.869-.353,10.97-2.051,15.056-5.369a62.651,62.651,0,0,0,9.032-8.646c4.054-4.954,7.689-10.147,11.244-15.355,4.657-6.822,8.911-13.824,13.6-20.629a166.508,166.508,0,0,1,51.718-48.586c23.584-14.234,50.021-23.025,78.954-26.852a66.842,66.842,0,0,1,13.514-.224c3.741.276,4.676,2.193,2.878,4.906a20.872,20.872,0,0,1-3.731,4.2c-2.922,2.524-5.926,5-9.106,7.31-6.171,4.476-12.479,8.828-18.747,13.216-12.038,8.428-23.906,17-34.169,26.911-9.079,8.769-16.733,18.238-21.664,29.049-4.2,9.213-5.88,18.68-3.974,28.426,2.778,14.209,11.754,25.523,25.773,34.012,23.945,14.5,50.627,17.532,78.991,10.91,21.613-5.046,38.739-15.664,52.84-29.685,9.692-9.638,16.986-20.458,23.693-31.575,3.7-6.129,7.2-12.354,11.319-18.292a120.361,120.361,0,0,1,10.753-12.881,26.537,26.537,0,0,1,10.6-6.794c16.12-5.763,32.192-11.624,48.455-17.111a148.065,148.065,0,0,1,42.344-7.809c19.825-.691,38.194,2.869,54.469,12.333,5.525,3.213,10.868,6.674,15.948,10.338,14.07,10.149,27.881,20.534,41.949,30.683,6.67,4.812,13.694,9.3,20.557,13.937v53.337c-1.441-.113-2.91-.118-4.319-.356-9.6-1.622-18.323-4.907-25.645-10.149-6.189-4.43-11.964-9.27-17.6-14.175-6.828-5.942-13.235-12.2-19.974-18.211a125.333,125.333,0,0,0-20.385-15.09c-14.815-8.622-31.384-12.169-49.473-11.31a154.957,154.957,0,0,0-30.207,4.678c-15.617,3.893-30.308,9.594-45.157,15.018a76.679,76.679,0,0,0-22.827,12.941c-3.087,2.551-6.138,5.132-9.185,7.715-5.446,4.619-10.8,9.311-16.33,13.865a159.816,159.816,0,0,1-44.4,25.768,149.052,149.052,0,0,1-56.058,10.483c-28.825-.37-54.31-8.322-76.391-23.307-6.34-4.3-12.16-9.111-18.242-13.667-2.648-1.983-5.24-4.032-8.059-5.844-7.061-4.539-11.638-4.333-17.779.928-3.021,2.588-5.617,5.5-8.431,8.252-4.092,4-8.042,8.1-12.352,11.943-5.894,5.249-13.312,7.77-22.163,7.477-10.135-.335-20.276-.685-30.417-.769-14.009-.117-28.024-.142-42.03.071-14.4.219-28.776,1.3-43.209.332-21.552-1.449-41.291-6.8-58.311-17.811-6.559-4.243-12.582-9.045-18.688-13.73-4.849-3.719-9.333-7.753-14.194-11.461a70.907,70.907,0,0,0-22.324-11.231c-5.666-1.744-9.992-.724-13.05,3.484a30.611,30.611,0,0,0-4.14,8.048c-2.1,6.152-3.715,12.413-5.7,18.594-7.386,23.012-20.448,43.557-41.655,60.153-32.663,25.561-71.26,35.624-116.083,27.576-21.944-3.94-40.908-12.34-55.784-26.321a108.686,108.686,0,0,1-21.086-27.872c-2.958-5.453-5.646-11.009-8.824-16.374a44.123,44.123,0,0,0-6.565-8.489c-3.6-3.634-8.661-5.057-14.325-4.382a64.888,64.888,0,0,0-10.043,2.077c-4.148,1.182-8.162,2.68-12.213,4.079a56.445,56.445,0,0,1-19.1,3.033q-17.618-.144-35.241.118c-15.088.214-30.165.7-44.993,3.285-6.558,1.143-12.915,2.764-18.521,5.9-7.64,4.269-10.492,10.171-8.482,17.528a33.18,33.18,0,0,0,5.776,11.019,88.379,88.379,0,0,0,16.369,16.367c6.914,5.417,14.126,10.582,21.121,15.933a80.923,80.923,0,0,1,8.317,7.014c3.83,3.859,2.419,6.305-3.683,6.921a12.456,12.456,0,0,1-1.6.1c-4.927-.142-9.889-.048-14.772-.5a226.073,226.073,0,0,1-38.868-7.429A37.807,37.807,0,0,0,2,1176.587Z" transform="translate(-2 -641.27)"/><path class="c" d="M2,954.539V931.773c2.128.05,4.257.161,6.384.139,26.56-.273,53.118-.745,79.678-.779,13.735-.018,27.5.428,41.2,1.233a138.174,138.174,0,0,0,31.394-1.619A214.138,214.138,0,0,1,198.8,927.68c16.816.188,33.641.042,50.451.391a212.274,212.274,0,0,1,23.053,1.88,76.237,76.237,0,0,1,14.532,3.484c21.329,7.263,33.181,20.382,35.888,39.025,2.228,15.339-6.526,29.691-23.158,37.1a90.7,90.7,0,0,1-14.408,4.759c-5.458,1.391-11.189,2.067-16.682,3.384a63.193,63.193,0,0,0-12.2,3.9c-6.028,2.857-8.109,7.555-7.1,13.111.929,5.125,4.1,9.338,8.391,13.046a50.708,50.708,0,0,0,17.534,9.479c25.113,8.246,49.662,6.708,73.323-3.569a95.412,95.412,0,0,0,46.85-42.606c6.341-11.462,9.577-23.612,12.049-35.934,1.372-6.839,2.743-13.684,5.649-20.24a30.14,30.14,0,0,1,8.516-11.639c5.092-4.134,11.154-5.755,18.273-4.555,1.305.22,2.616.416,3.92.643,16.614,2.89,32.477,7.722,48.454,12.278,14.715,4.2,29.37,8.594,44.312,12.19a157.6,157.6,0,0,0,50.3,3.632,205.225,205.225,0,0,0,36.6-6.724c10.372-2.816,20.593-6.017,31.041-8.622a48.676,48.676,0,0,0,19.018-9.233c2.281-1.824,4.529-3.684,6.654-5.626,10.2-9.315,20.138-18.818,30.555-27.965,17.829-15.655,37.4-29.681,59.855-40.909,16.779-8.39,34.682-14.838,53.139-20.29,25.331-7.482,50.412-15.4,74.558-25.215a200.163,200.163,0,0,1,34.873-10.406c7.125-1.472,14.329-2.75,21.744-2.03,9.1.883,11.635,4.441,7.835,11.2-1.934,3.436-4.521,6.627-6.734,9.963-3.1,4.669-6.417,9.264-9.065,14.1a24.25,24.25,0,0,0-2.772,9.075c-.69,6.739,3.074,10.315,11.294,11.493a46.71,46.71,0,0,0,17.4-1.259q12.292-2.888,24.355-6.406c17.244-5.026,34.641-9.489,52.965-11.1a152.124,152.124,0,0,1,36.289.652,107.3,107.3,0,0,1,40.35,15.125c18.967,11.621,37.716,23.472,54.964,36.8q7.834,6.051,15.76,12.023c1.934,1.45,4.058,2.733,6.1,4.091v26.668c-4.949-3.446-10.1-6.721-14.813-10.369q-25.806-19.977-53.127-38.567c-4.195-2.84-8.609-5.493-13.129-7.984a88.971,88.971,0,0,0-29.807-9.895,143.957,143.957,0,0,0-37.861-.468,185.237,185.237,0,0,0-40.559,9.748c-12.5,4.371-24.846,9.033-37.419,13.255a39.053,39.053,0,0,0-17.329,11.111,62.924,62.924,0,0,0-9.849,15.209c-3.083,6.579-5.962,13.221-8.888,19.847-5.01,11.347-10.717,22.421-19.056,32.479a95.774,95.774,0,0,1-45.664,31c-24.491,7.79-48.619,7.121-71.681-3.609-15.395-7.163-25.764-17.728-29.775-31.973-3.08-10.938-1.079-21.542,3.965-31.834,5.455-11.128,13.864-20.714,23.785-29.471,13.254-11.7,28.349-21.709,44.122-31.026,13.486-7.966,27.359-15.5,40.963-23.337,5-2.878,9.851-5.948,14.5-9.184a20.492,20.492,0,0,0,5.132-5.332c2.243-3.318.536-5.636-4.064-5.571a46.857,46.857,0,0,0-9.072,1.018c-7.864,1.687-15.668,3.564-23.472,5.432-17.264,4.131-34.634,8-51.744,12.52-33.083,8.737-61.9,23.164-85.891,43.758a228.431,228.431,0,0,0-30.326,31.841c-5.7,7.2-11.223,14.5-17.205,21.544a108.5,108.5,0,0,1-11.421,11.267c-4.3,3.754-9.836,5.8-16.158,6.555-5.141.613-10.242,1.471-15.327,2.351-15.119,2.618-30.034,5.985-45.4,7.707a164.863,164.863,0,0,1-55.477-2.741c-12.814-2.922-24.6-7.719-36.262-12.781-14.489-6.291-29.287-12.043-44.906-16.236-6.687-1.8-13.55-3.222-20.431-4.453a16.886,16.886,0,0,0-12.622,3.005,18.745,18.745,0,0,0-7.1,8.13,107.246,107.246,0,0,0-4.761,13.715c-2.116,8.04-3.411,16.232-5.778,24.218-6.3,21.27-18.572,39.916-38.979,54.49-25.915,18.506-55.89,25.533-89.908,19.43-14.849-2.664-28.334-7.767-38.884-17-10.123-8.856-15.865-19.17-14.954-31.523.827-11.228,9.192-18.545,22.966-19.792,4.625-.419,9.321-.305,13.981-.489,5.457-.215,10.966-.17,16.354-.8,14.572-1.7,24.857-9.23,27.5-20.164,2.427-10.047-.521-19.157-8.594-27.045-6.375-6.23-14.842-9.771-24.328-11.839-11.954-2.606-24.05-2.034-36.18-1.063-10.482.839-20.969,1.7-31.479,2.224-17.025.849-33.6,3.222-49.511,8.38-5.569,1.806-11.2,3.561-16.961,4.879a54.488,54.488,0,0,1-12.579,1.484c-11.338-.129-22.666-.746-34-1.058C63.355,952.985,32.667,952.945,2,954.539Zm843.685,48.866a77.261,77.261,0,0,0,25.415-4.29c20.374-7.051,33.921-19.483,42.339-35.853,5.244-10.2,7.453-20.966,8.828-31.883,1.533-12.171,3.168-24.334,4.668-36.508a95.5,95.5,0,0,0,1.047-12.62c-.051-4.85-2.774-7.138-8.638-7.781a46.345,46.345,0,0,0-7.964-.154,108.748,108.748,0,0,0-30.663,6.985c-19.252,7.079-36.221,16.979-52.137,28.14-9.424,6.607-18.029,13.84-25.075,22.22-5.535,6.583-9.8,13.639-12.074,21.441-5.657,19.434,4.943,37.25,27.22,45.668A74.434,74.434,0,0,0,845.685,1003.405Z" transform="translate(-2 -547.359)"/><path class="c" d="M1203.519,1734v22.766c-3.323.754-6.614,1.625-9.976,2.243-23.833,4.383-47.8,5.352-71.917,1.663-14.221-2.175-27.827-6.01-41.383-10.015q-10.339-3.054-20.877-5.657a53.352,53.352,0,0,0-35.6,3.055c-5.248,2.359-10.672,4.482-16.136,6.5-21.1,7.775-43.238,9.512-65.8,6.259-25.6-3.692-51.1-7.92-76.547-12.284a245.476,245.476,0,0,0-58.071-3.316,688.185,688.185,0,0,1-79.215.261c-31.715-1.546-63.447-2.516-95.23-2.51a385.042,385.042,0,0,0-79.158,8.5c-12.526,2.625-24.84,5.912-37.3,8.767-18.775,4.3-37.772,5.512-57.032,2.35-5.231-.859-10.488-1.614-15.713-2.5-8.094-1.367-16.325-2.38-24.227-4.286-24.494-5.91-49.595-8.289-74.979-9.454q-18.778-.862-37.506-2.4c-17.532-1.462-35.053-2.821-52.7-2.732-9.743.049-19.5.2-29.228-.15-23.592-.856-47.193-1.713-70.745-3.082-19.288-1.12-38.507-3-57.762-4.5-11.953-.931-23.9-1.909-35.877-2.63-19.737-1.188-39.108,1.685-58.539,3.8v-29.27c.789.108,1.587.182,2.364.33,15.84,3.014,31.688,6,47.513,9.066a689.514,689.514,0,0,0,98.015,11.884c24.936,1.206,49.9.714,74.86.6,16.81-.079,33.637.059,50.434.575a412.462,412.462,0,0,0,62.671-2.64c14.908-1.817,29.754-3.976,44.657-5.825,14.748-1.83,29.542-2.109,44.2.48,8.73,1.542,17.345,3.515,26,5.322a130.25,130.25,0,0,0,41.672,2.39c10.694-1.226,21.379-2.6,31.961-4.342A444.037,444.037,0,0,1,586.637,1717c23.232-.621,46.442-.216,69.654.574,23.746.808,47.4,2.5,71.043,4.437,15.659,1.282,31.374,2.354,47.1,2.837,15.193.467,30.433-.155,45.641.111a299.391,299.391,0,0,1,31.508,1.768c16.735,2.077,33.318,4.972,49.946,7.6,11.915,1.881,23.74,4.192,35.714,5.763,15.744,2.066,36.83-1.987,48.113-18.148,2.237-3.205,4.341-6.475,6.669-9.635,3.218-4.366,6.416-8.754,9.948-12.952a36.761,36.761,0,0,1,12.118-9.336,29.248,29.248,0,0,1,23.38-1.492,67.981,67.981,0,0,1,11.362,5.391c5.194,3.035,10.092,6.406,15.087,9.664a239.751,239.751,0,0,0,27.518,15.66c28.678,13.726,59.424,20.175,92.765,17.28C1190.677,1735.96,1197.082,1734.854,1203.519,1734Z" transform="translate(-2 -1138.841)"/><path class="c" d="M1203.519,1569.155v26.018c-1.45.129-2.915.188-4.348.4-15.182,2.21-30.437,3.228-45.812,1.658-26.272-2.682-49.2-11.2-68.01-26.45-5.646-4.58-10.453-9.834-15.783-14.679-4.436-4.032-8.848-8.113-13.689-11.811a38.254,38.254,0,0,0-16.51-6.98c-10.008-1.823-19.337-.117-28.219,3.693a62.086,62.086,0,0,0-23.908,17.881c-4.053,4.948-7.463,10.247-11.09,15.421-2.9,4.141-5.4,8.492-8.6,12.468-9.294,11.528-22.652,16.121-39.27,13.97-14.881-1.926-29.688-4.245-44.5-6.5s-29.623-4.625-44.736-5.112c-13.2-.425-26.4-.873-39.609-.941-20.179-.1-40.257-1.3-60.311-2.96-17.12-1.418-34.218-3.088-51.372-4.155q-44.114-2.743-88.377-3.138a357.906,357.906,0,0,0-46.309,2.224c-11.742,1.416-23.454,3.01-35.213,4.324-16.9,1.888-33.554,1.039-49.807-3.436q-11.369-3.131-22.729-6.281a102.038,102.038,0,0,0-48.887-1.782c-12.771,2.692-25.487,5.64-38.008,9.011a391.349,391.349,0,0,1-95.362,13.754q-46.426.8-92.856,1.462c-16.958.25-33.9-.2-50.775-1.552A536.088,536.088,0,0,1,35.978,1582.3c-11.368-2.75-22.654-5.723-33.978-8.595v-7.155c1.392.348,2.818.625,4.17,1.056,45.116,14.388,91.765,21.8,140.36,20.326,12.266-.372,24.549-.61,36.787-1.327q18.741-1.1,37.4-3.065c11.642-1.235,23.233-2.571,35-2.963,13.986-.466,27.992-1.1,41.9-2.311a223.33,223.33,0,0,0,62.312-14.713c14.849-5.808,28.576-13.068,41.929-20.852,4.549-2.652,9.242-5.145,13.935-7.627a21.1,21.1,0,0,1,12.218-2.375,74.073,74.073,0,0,1,12.155,1.831c7.294,2.05,14.444,4.477,21.518,7,7.939,2.828,15.658,6.062,23.6,8.888a106.391,106.391,0,0,0,36.1,6.5c10.661-.029,21.369-.245,31.971-1.084a527.22,527.22,0,0,1,66.787-.693q31.374,1.494,62.745,3.037c10.79.525,21.593.924,32.366,1.627,15.562,1.016,31.077,2.611,46.656,3.319,22.247,1.01,44.528,1.622,66.8,2.066,21.626.431,43.207,1.18,64.731,3.031a192.463,192.463,0,0,0,31.577.283c9.166-.719,16.63-3.667,22.108-9.758,1.731-1.925,3.559-3.793,5.3-5.711,2.853-3.139,5.611-6.336,8.519-9.441a139.013,139.013,0,0,1,36.831-28.174,110.1,110.1,0,0,1,27.068-10.324c19.694-4.488,36.972-1.067,51.577,10.614a89.663,89.663,0,0,1,9.773,9.018c4.166,4.5,7.859,9.284,11.867,13.881,4.16,4.772,8.14,9.681,12.753,14.153,11.134,10.791,25.459,17.242,42.528,19.761C1170.463,1575.053,1187.086,1573.119,1203.519,1569.155Z" transform="translate(-2 -1014.974)"/><path class="c" d="M2,451.527V429.412c1.33,0,2.66-.03,3.99-.01,10.005.146,20.01.358,30.017.438,10.81.087,21.622.02,32.432.082a89.628,89.628,0,0,1,20.946,2.43c15.7,3.871,31.413,7.73,46.936,12.034,15.7,4.352,29.982,10.962,42.02,20.3a245.906,245.906,0,0,1,19.233,16.957c5.864,5.616,11.178,11.61,16.763,17.419a81.456,81.456,0,0,0,31.594,20.486,58.907,58.907,0,0,1,22.556,14.2c7.065,7.225,15.984,12.43,26.464,15.814,6.557,2.117,13.209,4.128,20,5.646,4.7,1.052,9.706,1.279,14.6,1.669a18.078,18.078,0,0,0,5.11-.6c3.332-.723,5.3-2.6,5.422-5.376a28.586,28.586,0,0,0-.635-6.445c-.522-2.78-1.57-5.506-1.909-8.294-.638-5.262,1.964-8.216,8.305-9.492a57.668,57.668,0,0,1,8.7-.921c10.1-.459,19.954.911,29.687,2.915,19.548,4.025,39.182,7.478,59.436,8.322,18.738.781,37.345.4,55.827-2.357,18.236-2.721,34.526-8.308,46.171-20.72a9.515,9.515,0,0,1,.819-.713,52.6,52.6,0,0,1,13.129-8.442c7.424-3.2,14.707-6.636,22.307-9.527a666.037,666.037,0,0,0,64.641-28.588c6.221-3.156,12.515-6.251,19.016-9a139.423,139.423,0,0,1,16.49-5.794,32.864,32.864,0,0,1,23.545,1.89c3.8,1.806,7.47,3.784,11.2,5.682,3.5,1.783,6.938,3.669,10.534,5.321a36.325,36.325,0,0,0,23.589,2.539,128.294,128.294,0,0,0,17.3-4.989c24.544-9.35,48.49-19.614,71.068-31.871,7.656-4.156,15.292-8.337,23-12.425,22.081-11.709,45.164-21.87,70.05-29.1A312.226,312.226,0,0,0,971.5,374.894a186.974,186.974,0,0,1,39.838-12.5c16.338-3.185,32.709-6.291,49.167-9.028,18.554-3.086,35.8-8.591,51.519-17.147,7.423-4.042,14.614-8.367,21.868-12.611,6.5-3.8,12.828-7.8,19.449-11.446a56.676,56.676,0,0,1,10.943-4.659c7.307-2.195,12.2.248,13.848,6.468,1.409,5.333.129,10.439-2.8,15.152a66.558,66.558,0,0,1-8.831,11.563c-5.306,5.42-11.3,10.394-16.9,15.623a65.885,65.885,0,0,0-6.934,7.129c-4.238,5.383-3.489,10.131,2.085,14.7a33.489,33.489,0,0,0,5.554,3.7,84.921,84.921,0,0,0,8.7,4c14.057,5.492,29.015,7.931,44.514,8.458v27.969c-1.574-.219-3.15-.431-4.723-.659-14.187-2.054-28.328-4.265-42.208-7.48-22.406-5.191-43.782-12.48-64.732-20.676q-14.6-5.713-29.385-11.125c-17.827-6.509-36.094-6.915-54.736-2.481-12.62,3-24.373,7.612-36.191,12.169-9.15,3.528-18.33,7.09-27.813,9.946A429.659,429.659,0,0,0,889.5,421.979c-13.381,6.094-26.581,12.465-39.644,19-30.261,15.135-62.1,27.906-93.424,41.455a105.267,105.267,0,0,1-13.668,4.583c-7.155,1.979-14.591,3.05-22.053,1.546a119.425,119.425,0,0,1-14.661-4.206c-5.9-2-11.564-4.484-17.485-6.45a50.131,50.131,0,0,0-31.257-.235c-3.861,1.2-7.708,2.462-11.41,3.945a397.885,397.885,0,0,0-38.532,17.935c-9.963,5.284-18.534,11.7-24.952,19.9-7.832,10.005-19,16.483-32.475,20.708-15.994,5.012-32.7,7.069-49.623,8.2a335,335,0,0,1-39.2.293c-15.057-.76-30.082-1.779-44.93-3.965-11.412-1.68-22.726-3.794-34.1-5.632-3.912-.632-7.862-1.271-11.9-.509-4.442.839-6.759,2.844-6.929,6.534a39.721,39.721,0,0,0,.489,6.8c.454,3.554,1.361,7.089,1.482,10.645A23.681,23.681,0,0,1,364,570.824c-1.017,3.008-3.938,4.665-7.9,4.411a38.762,38.762,0,0,1-7.8-1.24c-5.3-1.472-10.478-3.213-15.711-4.836-16.57-5.139-33.162-10.232-49.706-15.427a91.156,91.156,0,0,1-31.2-16.676,83.493,83.493,0,0,0-21.508-12.85,72.865,72.865,0,0,1-17.9-10.321c-7.388-5.95-14.657-12.009-21.7-18.231a145.471,145.471,0,0,0-60.38-31.923c-9.138-2.4-18.275-4.81-27.45-7.117a122.46,122.46,0,0,0-28.318-3.94c-14.145-.185-28.3-.152-42.44-.353C21.994,452.178,12,451.8,2,451.527Z" transform="translate(-2 -207.61)"/><path class="c" d="M2,115.178c2.995-.906,6.07-1.668,8.969-2.744a43.792,43.792,0,0,1,33.142.654c3.088,1.28,6.232,2.49,9.21,3.923a143.723,143.723,0,0,0,37.111,11.773c5.595,1.007,11.12,2.279,16.647,3.517,18.011,4.033,34,11.286,48.872,20.312,13.5,8.192,25.833,17.468,38,26.9q8.834,6.845,17.5,13.835a187.315,187.315,0,0,1,29.472,29.463c3.838,4.823,7.564,9.711,11.616,14.413a106.117,106.117,0,0,0,9.448,9.652c6.564,5.9,14.908,8.023,24.587,7.216a142.843,142.843,0,0,0,22.236-3.944,179.764,179.764,0,0,1,17.82-3.6c10.339-1.448,20.527.049,30.443,2.331,12.952,2.98,25.8,6.262,38.614,9.628a257.049,257.049,0,0,0,49.765,7.727,370.892,370.892,0,0,0,43.19.377c46.794-2.588,90.034-13.552,128.026-36.491,17.24-10.409,31.86-23.033,45.543-36.4,9.209-9,18.314-18.072,27.681-26.962a109.061,109.061,0,0,1,20.6-15.831,82.843,82.843,0,0,1,13.061-6.242,38.284,38.284,0,0,1,31.342,1.966c3.161,1.6,6.024,3.583,9.094,5.309,4.162,2.34,8.238,4.821,12.625,6.851A35.806,35.806,0,0,0,803.6,160.31a110.627,110.627,0,0,0,16.593-7.076,139.373,139.373,0,0,0,27.769-19.541c11.422-10.215,14.52-22.373,11.558-35.709a57.468,57.468,0,0,0-9.53-20.591c-5.039-7.139-10.556-14.055-15.693-21.15-4.255-5.877-8.412-11.809-12.322-17.841a39.8,39.8,0,0,1-5.784-14.123,17.023,17.023,0,0,1,5.237-16.429A63.333,63.333,0,0,0,826.242,2H874.3a45.171,45.171,0,0,0,3.73,2.616c4.58,2.605,9.474,4.886,13.79,7.747,7.982,5.291,13.592,11.913,14.968,20.442a75.524,75.524,0,0,1,.613,8.1c.375,7.138.455,14.281,2.139,21.346,4.037,16.938,14.267,30.424,32.878,39.268,13.06,6.206,27.4,8.293,42.3,8.091a191.641,191.641,0,0,0,54.192-8.982c27.711-8.551,51.895-21.062,70.611-40.093a154.218,154.218,0,0,1,14.936-12.661A96.392,96.392,0,0,1,1145,35.55a48.689,48.689,0,0,1,26.259-3.83,175.515,175.515,0,0,1,32.257,7.355V49.483c-2.951-1-5.839-2.154-8.868-2.961-4.933-1.316-9.908-2.574-14.955-3.552a42.271,42.271,0,0,0-25.165,3.021,91.765,91.765,0,0,0-20.449,12.433c-6.54,5.109-12.851,10.411-19.252,15.635A153.819,153.819,0,0,1,1084.778,93.4a270.99,270.99,0,0,1-67.589,22.285c-19.461,3.746-39.189,5.42-59.156,2.753-17.961-2.4-33.82-8.407-47.454-18.25-8.446-6.1-14.307-13.486-16.346-22.554-1.627-7.236-2.818-14.545-3.874-21.853-1.041-7.206-1.185-14.513-2.577-21.666C885,19.843,874.562,10.8,857.5,6.889c-7.857-1.8-15.624-1.423-22.9,1.863-7.208,3.256-10.682,8.24-10.23,15,.318,4.755,2.284,9.1,4.766,13.326a100.409,100.409,0,0,0,14.105,18.1c6.041,6.344,12.445,12.462,18.409,18.852A170.408,170.408,0,0,1,872.9,87.449a25.51,25.51,0,0,1,5.5,13.792c1.018,16.169-4.618,30.535-18.985,41.977-8.749,6.968-18.2,13.4-27.773,19.627-6.955,4.522-14.512,8.463-22.027,12.376a67.3,67.3,0,0,1-17.278,5.9c-6.633,1.394-13.066,1.02-19-1.741a120.122,120.122,0,0,1-11.88-6.576c-3.516-2.147-6.731-4.614-10.177-6.84a32.286,32.286,0,0,0-11.348-4.645c-6.395-1.266-12.457-.288-18.365,1.708a67.877,67.877,0,0,0-19.3,10.327c-8.294,6.278-16.35,12.77-24.318,19.322-8.909,7.327-17.439,14.96-26.432,22.216-16.933,13.661-35.361,25.76-56.765,34.61-35.868,14.831-74.146,22.321-114.133,24.2-13.168.62-26.425.552-39.613.167-10.638-.31-21.286-1.269-31.835-2.483-13.858-1.6-27.582-3.959-41.44-5.561a148.829,148.829,0,0,0-48.071,2.026c-9.806,2.068-19.639,4.121-29.579,5.681-13.772,2.161-25.661-.911-34.913-9.724a66.95,66.95,0,0,1-7.27-7.745c-5.174-6.824-9.957-13.844-15.083-20.693-5.4-7.218-10.561-14.6-16.634-21.433-14.177-15.954-31.986-29.036-51.016-41.072a154.109,154.109,0,0,0-47.865-19.784c-5.257-1.222-10.512-2.481-15.838-3.474a151.357,151.357,0,0,1-41.611-13.931c-3.267-1.676-6.73-3.1-10.108-4.633a46.4,46.4,0,0,0-34.665-1.888c-4.176,1.346-8.7,1.973-13.071,2.928Z" transform="translate(-2 -2)"/><path class="c" d="M1203.519,1349.733c-4.583.7-9.136,1.6-13.756,2.047a47.443,47.443,0,0,1-30.032-6.928,84.4,84.4,0,0,1-16.818-13.859c-6.739-7-13.137-14.225-20.018-21.132-5.954-5.976-12.1-11.861-18.658-17.4a66.68,66.68,0,0,0-36.26-15.323c-11.141-1.26-22.093-.2-32.915,2.083a198.065,198.065,0,0,0-32.162,9.84c-9.47,3.757-18.887,7.617-28.15,11.7a127.555,127.555,0,0,0-13.015,6.97c-4.759,2.79-9.386,5.737-13.96,8.727-21.027,13.747-45.252,21.87-71.283,26.836a188.385,188.385,0,0,1-47.305,2.994,231.15,231.15,0,0,1-47.948-8.538c-5.3-1.484-10.561-3.046-15.87-4.5-2.778-.759-5.6-1.447-8.444-2.009a27.85,27.85,0,0,0-18.137,2.134,100.671,100.671,0,0,0-9.892,5.512c-7.838,5.057-16.656,7.349-26.67,7.561-19.385.41-38.687-.387-57.989-1.659-19.965-1.317-39.957-1.912-60-1.646-10.662.142-21.361.049-32-.5a116.225,116.225,0,0,1-55.453-16.792,205.289,205.289,0,0,1-26.54-19.744c-5.234-4.483-10.433-9-15.84-13.341-5.076-4.076-7.872-3.773-11.493,1.281a88.61,88.61,0,0,0-5.975,9.914c-7.032,13.149-14.949,25.892-25.27,37.583a153.906,153.906,0,0,1-68.477,44.972,162.831,162.831,0,0,1-57.943,7.93,177.38,177.38,0,0,1-43.361-7.156,129.9,129.9,0,0,1-43.931-22.671c-5.566-4.369-10.891-8.942-16.519-13.257a109.731,109.731,0,0,0-11.045-7.481,26.155,26.155,0,0,0-16.293-3.507q-22.787,2.554-45.48,5.643a61.189,61.189,0,0,0-11.722,3.2,30.133,30.133,0,0,0-7.044,3.645c-4.282,2.949-5.662,6.868-3.949,11.163a25.58,25.58,0,0,0,4.575,7.518,120.321,120.321,0,0,0,10.089,9.649c3.788,3.352,7.88,6.478,11.661,9.835a20.981,20.981,0,0,1,4.036,4.809c1.707,2.848.765,5.285-2.877,6.4a61.21,61.21,0,0,1-11.215,2.144c-9.984,1.081-20.009.422-29.979-.2a260.664,260.664,0,0,1-49.411-7.616c-6.98-1.816-13.856-3.9-20.779-5.858v-3.252c1.024.235,2.072.416,3.067.713a256.127,256.127,0,0,0,41.336,8.77,180.349,180.349,0,0,0,29.9,1.632,38.267,38.267,0,0,0,5.929-.643c6.013-1.205,7.107-3.667,3.281-7.706a54.919,54.919,0,0,0-6.546-5.691c-5.247-4.011-10.838-7.741-15.878-11.912-5.313-4.4-10.317-9.061-15.13-13.825a25.592,25.592,0,0,1-6.341-10.428c-2.141-6.617.25-12.074,7.325-15.8a40.984,40.984,0,0,1,9.33-3.644,160.094,160.094,0,0,1,17.117-3.242,375.686,375.686,0,0,1,43.885-2.622c9.037-.1,17.8-.988,26.283-3.623a71.431,71.431,0,0,1,8.079-1.855c7.512-1.4,14.112.072,19.315,4.709a86.408,86.408,0,0,1,8.358,8.693c4.084,4.818,7.82,9.83,11.853,14.678,7.282,8.754,15.486,16.917,25.809,23.407,28.533,17.939,61.092,23.53,96.257,19.3a141.209,141.209,0,0,0,72.955-30.842,132.71,132.71,0,0,0,39.9-52.686c2.931-6.962,5.2-14.106,8.021-21.1a34.932,34.932,0,0,1,4.562-8.249c2.586-3.368,6.106-4.05,10.332-2a70.694,70.694,0,0,1,11.283,6.661c4.422,3.281,8.318,7.026,12.472,10.546,5.908,5.006,11.625,10.178,17.814,14.944a112.686,112.686,0,0,0,52.466,22.3c14.113,2.176,28.361,2.48,42.66,1.942,19.756-.744,39.485-.282,59.224.551,14.385.607,28.8.847,43.2,1.169a30.321,30.321,0,0,0,18.043-5.318c2.865-1.941,5.522-4.083,8.263-6.143,2.839-2.134,5.6-4.34,8.513-6.4,6.738-4.775,14.258-5.7,22.285-2.461,4.528,1.828,8.84,4.011,13.237,6.051,8.1,3.759,15.943,7.963,24.342,11.216a156.389,156.389,0,0,0,82.63,8.862q41.915-6.751,74.22-29.6c8.053-5.689,15.819-11.647,23.68-17.514a87.272,87.272,0,0,1,22.781-12.5c5-1.8,9.857-3.855,14.821-5.721,14.2-5.336,28.687-10.007,44.117-12.464,11.779-1.876,23.569-2.28,35.364-.079a79.486,79.486,0,0,1,35.588,16.683c8.4,6.708,15.543,14.285,22.817,21.775,4.544,4.679,9.121,9.343,13.887,13.872a72.116,72.116,0,0,0,16.685,12.071c9.857,5.077,20.616,6.8,32.138,5.644Z" transform="translate(-2 -849.539)"/><path class="c" d="M514.648,2c2.416,1.532,4.846,3.051,7.244,4.6a41.3,41.3,0,0,1,3.651,2.531c2.261,1.84,2.131,3.033-.756,4.3a60.824,60.824,0,0,1-8.063,2.84c-12.741,3.545-25.47,7.126-38.3,10.459-21.216,5.511-42.53,10.771-63.74,16.3-5.445,1.418-10.682,3.379-15.957,5.2-1.788.617-3.621,1.365-4.688,3.309a12.293,12.293,0,0,0,2.8,1.133,56.6,56.6,0,0,0,7.542.673c28.431-.005,56.865.139,85.29-.2,17.349-.209,34.582-2.074,51.768-3.993,15.061-1.682,30.076-3.65,45.166-5.135a68.045,68.045,0,0,1,15.11.36c7.463.958,10.521,4.99,8.391,10.876A51.273,51.273,0,0,1,604.7,65.322c-2.292,3.543-5.18,6.827-7.572,10.331-5.2,7.623-4.182,11.377,4.374,16.712,3.492,2.178,7.128,4.205,10.582,6.42,10.373,6.65,15.51,15.53,16.416,26.1,1.316,15.349-4.026,29.371-13.445,42.458-12.4,17.227-30.246,29.853-51.6,39.34a179.513,179.513,0,0,1-58.463,14.691c-37.533,3.1-73.411-1.7-107.158-15.561A143.6,143.6,0,0,1,354.3,178.09c-12.93-12-20.85-25.805-23.856-41.525-.491-2.567-1.141-5.115-1.793-7.66-1.87-7.3-7.275-11.975-16.167-13.723-5.561-1.093-11.275-1.667-16.877-2.64a80.657,80.657,0,0,1-11.152-2.469c-6.676-2.178-9.547-6.249-9.025-12.081.155-1.724.572-3.433.895-5.146.223-1.178.584-2.343.72-3.526.354-3.068-1.078-4.36-4.865-3.869a57.077,57.077,0,0,0-9.621,2.129c-10.83,3.389-21.551,7.006-32.381,10.395-5.221,1.634-10.546,3.078-15.9,4.391-13.316,3.263-25.513,1.259-35.922-6.147a246.917,246.917,0,0,1-19.589-15.774c-9.878-8.668-19.27-17.7-29.141-26.377A185.236,185.236,0,0,0,98.84,31.874C82.669,22.684,64.653,18,45.056,16.82A205.829,205.829,0,0,0,5.178,18.167,29.806,29.806,0,0,1,2,18.261V13.708c.919-.12,1.844-.216,2.756-.364a174.066,174.066,0,0,1,71.134,2.97,135.481,135.481,0,0,1,41.068,18.5c13.624,8.889,26.86,18.17,40.285,27.26,7.8,5.278,15.742,10.393,24.6,14.484a72.322,72.322,0,0,0,19.717,6.115c12.409,1.859,24.188-.019,35.47-4.2,6.548-2.424,12.964-5.105,19.295-7.888a346.91,346.91,0,0,1,57.712-19.922C332.294,46.22,350.546,41.7,369,37.841c30.336-6.352,60.838-12.181,91.255-18.279q10.87-2.179,21.637-4.693c2.477-.575,5.223-.995,7.078-3.354a27.481,27.481,0,0,0-3.329-2.6c-3.165-1.8-6.468-3.45-9.665-5.218A16.45,16.45,0,0,1,473.8,2Zm51.389,56.049c-6.422.568-11.993,1.047-17.561,1.554-17.231,1.57-34.432,3.421-51.7,4.657-19.535,1.4-39.133,2.223-58.7,3.344a471.587,471.587,0,0,0-53.879,6c-14.373,2.5-28.548,5.593-41.9,10.69a65.579,65.579,0,0,0-11.612,5.682c-6.889,4.362-6.761,8.157-.088,12.667,2.359,1.594,4.822,3.09,7.121,4.738,4.639,3.326,6.608,7.537,5.829,12.528-.419,2.684-.946,5.36-1.552,8.021A46.242,46.242,0,0,0,341.3,147c1.661,8.756,6.208,16.528,12.4,23.712,13.208,15.314,30.783,26.457,51.544,34.088a221.6,221.6,0,0,0,103.49,11.973c26.436-3.1,50.293-11.217,71.323-24.642,15.253-9.738,27.492-21.473,35.106-36.093,5.159-9.907,8.081-20.173,6.05-31.036a26.239,26.239,0,0,0-11.7-17.961,73.342,73.342,0,0,0-12.192-6.13c-4.265-1.761-8.888-2.941-13.278-4.514a71.317,71.317,0,0,1-9.258-3.8c-5.153-2.726-6.115-5.924-3.235-10.317,1.624-2.477,3.789-4.716,5.553-7.137a50.109,50.109,0,0,0,5.1-7.7c2.232-4.737-.076-7.888-6.245-8.736C572.438,58.222,568.809,58.219,566.038,58.049Z" transform="translate(-2 -2)"/><path class="c" d="M1203.519,1476.577c-4.772.969-9.516,2.046-14.323,2.883a89.671,89.671,0,0,1-24.249,1.258,60.282,60.282,0,0,1-31.609-12.175,98.85,98.85,0,0,1-15.223-15.042c-4.6-5.452-8.886-11.1-13.81-16.348a169.653,169.653,0,0,0-15.8-15.073,63.2,63.2,0,0,0-33.086-14.132,83.01,83.01,0,0,0-29.289,1.969,138.6,138.6,0,0,0-30.67,11c-11.332,5.7-22.33,11.845-33.369,17.922-5.078,2.8-9.884,5.913-14.86,8.832-3.136,1.84-6.348,3.6-9.542,5.37a52.192,52.192,0,0,1-24.751,6.574c-28.09.542-55.807,3.946-83.538,7.245-9.5,1.13-18.975,2.656-28.53,3.205a305.452,305.452,0,0,1-32.784.376c-30.513-1.538-61.062-2.115-91.6-3.1-16.926-.544-33.821-1.77-50.723-2.768a604.629,604.629,0,0,0-63.608-.638,238.793,238.793,0,0,1-34.383-.5,113.127,113.127,0,0,1-37.33-10.13c-9.349-4.4-18.409-9.2-27.719-13.65-5.625-2.69-11.5-5.028-17.227-7.583a11.762,11.762,0,0,0-12.513,1.346c-3.761,2.757-7.412,5.615-11.042,8.485-8.029,6.349-15.714,13.008-24.074,19.053a190.011,190.011,0,0,1-80.191,33.527,231.717,231.717,0,0,1-55.738,2.472c-12.887-.906-25.733-2.187-38.606-3.237-3.182-.26-6.394-.29-9.594-.389a32.4,32.4,0,0,0-17.36,3.973c-8.974,5.042-19.307,7.288-29.976,8.447-20.43,2.218-40.99,2.437-61.534,1.836-34.192-1-67-7.353-98.7-17.683-1.335-.435-2.78-.647-4.174-.964v-2.6a337,337,0,0,0,61.662,14.643,352.688,352.688,0,0,0,56.637,2.8c9.043-.243,18.09-.986,27.067-1.93a48.283,48.283,0,0,0,11.364-2.956c5.71-2.093,8.394-5.872,7.646-11.036-.342-2.365-.9-4.71-1.272-7.074-1.252-7.961,3.067-11.442,12.719-9.661a109.44,109.44,0,0,1,16.215,4.547,340.141,340.141,0,0,0,35.953,10.921,245.818,245.818,0,0,0,54.038,6.676c40.7.231,76.262-10.946,107.063-32.388,12.629-8.792,23.382-18.988,33.56-29.615,3.85-4.02,7.718-8.031,11.713-11.956a37.691,37.691,0,0,1,5.163-4.056,6.923,6.923,0,0,1,7.737-.3c4.714,2.654,9.457,5.277,14.1,8.008,8.215,4.829,16.242,9.874,24.574,14.563a117.4,117.4,0,0,0,35.783,13.394,170.007,170.007,0,0,0,30.977,2.731c7.2.04,14.411-.192,21.613-.393,22.726-.635,45.333.89,67.965,2.216,16.233.952,32.5,1.715,48.763,2.062,16.673.356,33.365.153,50.049.1,11.925-.039,23.668-1.548,35.336-3.383a211.713,211.713,0,0,1,31.444-2.356c11.741-.084,23.49-.1,35.218-.5,19.264-.656,38.136-3.6,56.906-7.005,1.953-.354,3.894-.762,5.861-1.053a121.318,121.318,0,0,0,34.962-10.867c10.912-5.238,21.748-10.582,32.6-15.9,12-5.888,24.182-11.507,37.182-15.846,11.427-3.813,23.159-6.618,35.647-6.754a71.345,71.345,0,0,1,34.442,8.193,81.352,81.352,0,0,1,19.905,14.485c6.3,6.306,12.139,12.913,18.151,19.405,5.29,5.713,10.487,11.484,15.846,17.154a46.513,46.513,0,0,0,5.253,4.459c13.475,10.51,29.48,13.333,47.388,10.131,3.9-.7,7.726-1.687,11.594-2.516.88-.189,1.8-.271,2.695-.4Z" transform="translate(-2 -941.259)"/><path class="c" d="M2,243.235c8.391.318,16.356-1.792,24.5-2.872,10.863-1.441,21.269-.528,31.2,3.415,3.236,1.284,6.52,2.5,9.658,3.931a178.544,178.544,0,0,0,39.409,12.452c5.955,1.181,11.828,2.65,17.7,4.1,22.419,5.53,41.437,15.688,58.727,28.292,18.206,13.271,32.318,29.036,44.052,46.356,5.077,7.494,10.489,14.847,16.041,22.118A53.95,53.95,0,0,0,256.793,373.8a50.357,50.357,0,0,0,36.747,7.535c8.089-1.341,16.035-3.256,24.039-4.931,16.5-3.455,33.2-3.739,50.043-2.178,25.865,2.4,51.76,4.4,77.853,3.136,14.51-.7,29.083-.908,43.523-2.144,39.583-3.388,77.657-11.308,113.033-26.573,17.437-7.524,32.931-17.3,47.392-28.126,13.442-10.063,26.436-20.52,39.861-30.6A186.933,186.933,0,0,1,707.867,277.6,68.806,68.806,0,0,1,722,271.651a27.675,27.675,0,0,1,23.771,3.067c3.566,2.271,6.849,4.833,10.384,7.139,3.635,2.371,7.29,4.75,11.17,6.839a28.385,28.385,0,0,0,22.552,2.092,108.7,108.7,0,0,0,15.276-5.609,266.361,266.361,0,0,0,23.613-12.791c12.292-7.634,24.162-15.717,36.184-23.637a71.491,71.491,0,0,0,18.635-17.7c1.971-2.7,3.905-5.43,6.02-8.06a50.391,50.391,0,0,1,5.028-5.454,15.351,15.351,0,0,1,13.315-3.831c4.312.674,8.586,1.562,12.8,2.561,9.089,2.154,18.123,4.407,27.516,5.637a187.71,187.71,0,0,0,36.728.915c34.14-2.239,65.989-10.865,96.255-23.582a183.486,183.486,0,0,0,42.412-25.348c6.521-5.122,13.021-10.287,19.94-15.04a112.929,112.929,0,0,1,15.405-8.691,38.223,38.223,0,0,1,27.026-2.2c5.921,1.614,11.663,3.66,17.486,5.513v8.456c-4.552-1.792-9.016-3.754-13.675-5.339a36.363,36.363,0,0,0-26.289,1.064,94.826,94.826,0,0,0-18.714,10.523c-7.747,5.481-15.287,11.157-23.078,16.6-20.612,14.392-44.268,24.361-69.743,31.8A348.924,348.924,0,0,1,970.1,230.612c-12.63.584-25.339.029-38.013-.03-2.4-.011-4.8-.175-7.2-.173-10.071.007-18.958,2.62-26.026,8.508-11.992,9.99-25.819,18.122-39.533,26.4-11.352,6.852-22.471,13.959-33.743,20.9a193.37,193.37,0,0,1-30.749,15.776,95.763,95.763,0,0,1-11.88,3.808,28.551,28.551,0,0,1-21.078-2.453c-4.732-2.6-9.077-5.674-13.526-8.605-3.107-2.047-5.993-4.32-9.163-6.3-6.149-3.833-13.057-4.64-20.471-2.978A53.48,53.48,0,0,0,702,292.289c-9.188,5.751-18.178,11.716-27.085,17.754-11.678,7.916-23.05,16.13-34.809,23.964-25.887,17.245-55.512,28.561-87.542,36.049a615.912,615.912,0,0,1-68.818,11.814c-17.819,2.082-35.648,4.133-53.4,6.545a159.238,159.238,0,0,1-43.39-.424c-9.984-1.369-20.015-2.629-30.086-3.438a140.529,140.529,0,0,0-44.672,3.981c-5.867,1.426-11.817,2.66-17.795,3.741a46.219,46.219,0,0,1-16.663-.525c-13.905-2.558-25.579-8.135-34.238-17.382-4.754-5.077-9.065-10.448-13.218-15.869-5.777-7.542-11.072-15.327-16.836-22.876a156.684,156.684,0,0,0-32.691-31.864c-18.287-13.276-39.531-22.026-63.081-27.146a296.569,296.569,0,0,1-45.848-13.425,75.671,75.671,0,0,0-32.7-4.857c-5.056.309-10.1.752-15.162.99-7.317.344-14.644.556-21.967.825Z" transform="translate(-2 -99.486)"/><path class="a" d="M2,800.073c29.2,1.612,58.434.339,87.651.447,24.009.088,46.765,4.48,68.921,11.6,12.647,4.065,25.386,7.942,38.1,11.877,22.122,6.849,44.952,11.582,68.192,15.13a182.81,182.81,0,0,1,34.4,8.383c17.315,6.232,31.145,15.744,41.336,28.741a188.344,188.344,0,0,1,18.62,29.813,67.108,67.108,0,0,0,4.609,7.922c2.876,4.065,6.394,4.457,10.159.965a31.866,31.866,0,0,0,6.1-7.566c3.208-5.706,6.1-11.541,8.808-17.417,4.5-9.741,8.858-19.529,15.406-28.518a60.382,60.382,0,0,1,7.9-8.94c4.261-3.912,9.854-5.19,16.3-4.572,18.036,1.728,35.752,4.863,53.524,7.767,15.565,2.543,31.2,4.823,47.086,5.442,26.907,1.05,53.356-1.014,78.631-9.092,8.662-2.768,17.067-6.152,25.3-9.694,12.27-5.275,24.612-10.323,37.579-14.442a185.873,185.873,0,0,0,22.834-9.357c14.3-6.742,28.567-13.568,42.479-20.824a608.751,608.751,0,0,1,83.919-36.355c18.2-6.253,35.53-13.938,52.95-21.485,23.7-10.268,48.189-19.137,74.05-25.157,12.276-2.857,24.887-4.791,37.394-6.962,8.86-1.537,17.764-2.964,26.714-4.1a110.27,110.27,0,0,1,48.343,4.371,284.525,284.525,0,0,1,27.582,10.335c20.008,8.9,39.79,18.132,59.512,27.442a405.892,405.892,0,0,1,46.263,26.2c3.539,2.276,7.237,4.389,10.862,6.577v15.611c-1.493-.868-3.049-1.674-4.468-2.615-8.783-5.832-17.292-11.958-26.365-17.473-9.388-5.706-19.133-11.062-29.047-16.152-14.548-7.469-29.409-14.533-44.091-21.831-13.785-6.852-27.773-13.372-42.775-18.358-14.535-4.831-29.6-7.437-45.309-6.6-10.1.541-20.155,1.712-30.216,2.693-34.283,3.344-65.957,13.325-96.273,26.09q-40.006,16.844-81.344,31.267a392.161,392.161,0,0,0-62,28.315Q713.717,815.083,685.8,830.6a170.432,170.432,0,0,1-27.992,12.507c-8.468,2.882-16.583,6.483-24.71,9.987-15.661,6.753-31.963,11.96-49.541,14.31a241.313,241.313,0,0,1-45.467,1.714c-16.294-.9-32.25-3.382-48.144-6.263q-23.615-4.28-47.267-8.424c-3.774-.659-7.617-1.111-11.455-1.464-7.194-.661-13.248,1.426-17.743,5.893a68.8,68.8,0,0,0-8.45,10.219c-5.96,8.81-9.007,18.5-12.078,28.147-2.969,9.334-5.815,18.7-10.546,27.584a68.823,68.823,0,0,1-14.117,18.792,42.417,42.417,0,0,1-12.226,8.293,29.725,29.725,0,0,1-7.505,2.066c-3.146.417-5.158-1.065-5.336-3.659a15.5,15.5,0,0,1,.512-4.831c1.377-5.408,3.069-10.766,4.331-16.191,2.822-12.122,1.012-23.933-4.024-35.493-8.384-19.243-22.943-34.079-46.163-42.752a129.544,129.544,0,0,0-25.855-6.7c-11.66-1.776-23.46-2.989-35.053-5q-27.571-4.783-54.929-10.363c-13.053-2.672-25.869-6.1-38.859-8.988a205.252,205.252,0,0,0-44.314-4.827c-19.086-.028-38.173.371-57.259.383-12.406.008-24.812-.346-37.218-.534-.8-.012-1.6.015-2.4.024Z" transform="translate(-2 -474.849)"/><path class="c" d="M2,633.312c11.2.27,22.4.633,33.607.787,13.477.186,26.958.127,40.436.3a141.386,141.386,0,0,1,33.778,4.873c7.368,1.913,14.7,3.935,22,6a157.091,157.091,0,0,1,53.793,26.887c6.188,4.779,12.362,9.6,18.955,13.993a170.029,170.029,0,0,0,17.619,10.109c6.928,3.5,13.807,7.02,19.93,11.407,11.363,8.14,24.313,13.98,38.5,18.2,12.268,3.649,24.436,7.522,36.58,11.437a214.755,214.755,0,0,1,30.263,12.538,86.424,86.424,0,0,0,10.911,4.755c7.521,2.546,13.133.48,15.811-5.78a23.936,23.936,0,0,0,1.822-7.612c.284-3.886.019-7.8.017-11.7a58.856,58.856,0,0,1,.127-6.821c.557-4.8,3.736-7.237,9.694-7.327a45.057,45.057,0,0,1,8.333.688,592.345,592.345,0,0,0,74.1,8c27.531,1.281,54.976.648,81.923-4.908a144.277,144.277,0,0,0,23.684-6.913,76.183,76.183,0,0,0,27.276-17.712c3.055-3.15,6.008-6.369,9.155-9.457,9.681-9.5,21.869-16.124,36.029-20.405,13.3-4.022,26.735-3.385,40.16-.444,5.279,1.156,10.5,2.483,15.734,3.78a63.209,63.209,0,0,0,36.428-1.293c8.457-2.916,16.8-6.123,24.886-9.663,38.635-16.913,77.318-33.75,115.248-51.712a478.606,478.606,0,0,1,71.041-26.809c8-2.331,15.6-5.6,23.239-8.682,8.97-3.616,17.955-7.144,27.534-9.618a102.357,102.357,0,0,1,51.96-.068c13.258,3.41,25.931,7.988,38.63,12.519,18.562,6.622,36.947,13.63,56.305,18.621,13.977,3.6,28.152,6.7,42.233,10.042,4.6,1.092,9.181,2.241,13.771,3.364V615.75c-15.947-5.88-32.972-9.233-49.448-13.872-21.349-6.011-41.636-14.011-62.172-21.553-14.47-5.314-29.12-10.239-44.55-13.508a99.981,99.981,0,0,0-55.524,3.684c-5.971,2.142-11.784,4.6-17.533,7.117a202.381,202.381,0,0,1-25.6,9.153,545.469,545.469,0,0,0-75.141,28.14Q815.88,641.051,757.42,665.988c-6.968,2.96-14.1,5.667-21.24,8.355a80.815,80.815,0,0,1-40.612,4.238,110.389,110.389,0,0,0-33.048.176,82.249,82.249,0,0,0-32.133,11.825c-4.8,3.1-9.513,6.317-13.979,9.728-20.372,15.559-44.935,23.723-72.16,27.321-23.185,3.064-46.5,3.256-69.85,1.962-23.169-1.283-46.172-3.748-69.076-6.838A75.868,75.868,0,0,0,397,721.9c-7.2-.169-10.973,2.325-12.06,8.153-.778,4.169-.873,8.42-1.6,12.6a47.861,47.861,0,0,1-2.7,10.449,23.448,23.448,0,0,1-5.17,7.228c-3.511,3.478-8.232,4.213-13.39,2.561a35.155,35.155,0,0,1-4.979-2.055,50.108,50.108,0,0,1-5.577-3.158c-17-11.44-36.613-18.9-57.193-24.9-8.155-2.379-16.354-4.663-24.484-7.1a145.69,145.69,0,0,1-30.6-13.313c-9.268-5.294-18.846-10.229-28.188-15.44-5.714-3.188-11.3-6.536-16.829-9.933-3.722-2.286-7.331-4.706-10.85-7.2-24.708-17.5-54.1-27.007-85.511-33.019-10.591-2.027-21.452-2.048-32.257-2.147-16.947-.155-33.9-.105-50.845-.239-4.26-.034-8.516-.437-12.774-.67Z" transform="translate(-2 -376.385)"/><path class="c" d="M1203.519,250.259a63,63,0,0,0-11.409-11.6c-7.447-5.745-15.843-7.059-24.975-3.319a147.6,147.6,0,0,0-16.023,7.93c-5.048,2.823-9.829,5.977-14.58,9.131-27.822,18.472-59.072,31.309-94.047,38.2-16.453,3.243-32.79,6.871-49.193,10.285a286.528,286.528,0,0,0-35.887,10.066q-12.868,4.481-25.929,8.6a391.566,391.566,0,0,0-76.951,33.715c-6.872,3.933-13.688,7.931-20.521,11.909a364.549,364.549,0,0,1-51.335,24.534,102.085,102.085,0,0,1-22.984,6.474,32.563,32.563,0,0,1-19.265-2.809c-3.983-1.958-7.709-4.268-11.487-6.491-3.349-1.971-6.566-4.088-9.919-6.053a27.7,27.7,0,0,0-22.426-2.636,98.382,98.382,0,0,0-14.219,5.133c-7.394,3.452-14.529,7.279-21.662,11.086-8.474,4.523-16.794,9.236-25.245,13.787-22.142,11.924-46,20.99-71.014,28.164-10.434,2.993-20.751,6.26-31.053,9.544a97.725,97.725,0,0,0-24.57,11.44c-13.447,8.951-29.2,12.661-46.118,14.09-24.629,2.079-48.7-.189-72.491-5.486-8.083-1.8-16.366-3.1-24.642-4.211-12.988-1.748-25.81-.456-38.426,2.312a66.932,66.932,0,0,0-9.406,2.676c-5.291,2.012-8.612,5.38-9.293,10.239-.03.215-.085.428-.132.641-1.024,4.666-3.319,5.821-8.562,3.774a36.935,36.935,0,0,1-8.575-4.7,99.177,99.177,0,0,0-28.72-14.525c-3.087-1.015-6.076-2.228-9.093-3.381-11.7-4.473-21.48-10.871-29.135-19.35-4.181-4.631-8.246-9.331-12.346-14.01-4.176-4.768-8.275-9.581-12.5-14.318q-26.746-29.957-70.242-41.037c-14.245-3.65-28.461-7.374-42.692-11.061a106.471,106.471,0,0,0-25.212-3.257c-4.937-.073-9.878-.064-14.815-.014-14.808.15-29.616.908-44.419-.1V343.924c2.246.2,4.495.587,6.739.569,11.875-.093,23.748-.29,35.621-.448,9.208-.123,18.439-.42,27.528,1.111,3.907.658,7.771,1.544,11.572,2.538,14.089,3.682,28.12,7.513,42.218,11.173,17.686,4.591,34.288,10.842,48.812,20.411A129.092,129.092,0,0,1,200.672,402c6.111,6.969,11.75,14.21,17.761,21.239,4.867,5.691,9.829,11.337,15.024,16.832a50.954,50.954,0,0,0,13.914,10.191,122.227,122.227,0,0,0,41.935,12.947,53.048,53.048,0,0,0,17.018-1.235c7.622-1.577,15.178-3.368,22.813-4.9a116.586,116.586,0,0,1,42.854-.3c11.871,2.028,23.625,4.512,35.51,6.48a149.984,149.984,0,0,0,56.7-1,74.51,74.51,0,0,0,15.948-5.1c18.14-8.607,37.784-14.02,57.711-19,13.25-3.308,26.455-6.771,39.507-10.557,23.275-6.751,44.614-16.539,64.7-28.161,10.758-6.225,21.31-12.686,32.154-18.808,6.451-3.642,13.127-7.07,20.01-10.14a71.82,71.82,0,0,1,13.048-3.951,22.693,22.693,0,0,1,16.058,2.326c3.11,1.664,5.978,3.629,8.917,5.5,3.99,2.538,7.846,5.222,11.934,7.651,7.568,4.495,15.952,5.672,25.071,3.826a109.229,109.229,0,0,0,19.4-6,306.076,306.076,0,0,0,44.5-22.41c13.447-8.2,27.045-16.206,41.2-23.6,35.544-18.574,74.094-31.02,115.4-38.042,19.189-3.262,38.159-7.213,57.016-11.6,32.421-7.547,61.595-19.928,87.557-37.378,5.755-3.869,11.512-7.758,17.561-11.309a123.672,123.672,0,0,1,15.263-7.691c9.233-3.82,18.342-3.253,26.769,1.8,3.313,1.988,6.406,4.217,9.6,6.337Z" transform="translate(-2 -152.692)"/><path class="c" d="M1234,1936.276c3.836-.323,7.675-.633,11.509-.97,12.95-1.137,25.375-4.108,37.722-7.28,21.4-5.5,42.994-10.4,65.129-13.495,25.807-3.612,51.741-6.143,78.024-6.031,23.359.1,46.734.039,70.077-.571,18.932-.494,37.849-1.7,56.733-2.982,14.4-.978,28.517.187,42.591,2.373q45.794,7.113,91.58,14.266a163.38,163.38,0,0,0,29.078,2.01c15.336-.376,30.684-.9,45.974-1.9a340.718,340.718,0,0,1,57.931,1.233c14.436,1.516,28.9,2.682,43.472,2.949a318.727,318.727,0,0,0,77.107-8.256c.384-.088.78-.14,1.171-.208v12.358c-6.633,1.445-13.281,2.843-19.888,4.36-2.5.573-4.9,1.422-7.346,2.145H1695.383c-1.642-.418-3.261-.912-4.93-1.242-31.872-6.306-64.1-11.148-96.441-15.547a227.41,227.41,0,0,0-54.557-.977c-13.351,1.394-26.77,2.384-40.177,3.384-22.567,1.683-45.164,3-67.583,5.929-20.926,2.73-41.969,4.866-62.955,7.294-2.477.286-4.92.768-7.379,1.159Z" transform="translate(-740.576 -1285.829)"/><path class="c" d="M2,871.081c2.257-.007,4.514-.009,6.77-.022q22.625-.131,45.25-.271c16.552-.12,33.1-.4,49.654-.379a320.956,320.956,0,0,1,48.883,4.294c8.5,1.318,17.173,1.88,25.771,2.772,13.759,1.426,27.514,2.884,41.282,4.249q16.281,1.615,32.59,3.033c12.752,1.123,25.361,2.652,37.465,6.379,37.154,11.438,50.78,40.7,47.949,62.707-1.326,10.311-6.15,19.543-14.365,27.407-4.725,4.523-10.289,8.471-15.514,12.645-2.661,2.126-5.633,4.021-8.073,6.3-4.706,4.391-3.755,8.336,2.458,11.207a34.261,34.261,0,0,0,11.825,2.806,69.775,69.775,0,0,0,32.824-5.633,80.671,80.671,0,0,0,29.656-21.39c10.043-11.38,15.956-24.19,19.7-37.736,2.425-8.765,4.535-17.594,7.245-26.3A62.254,62.254,0,0,1,409,911.023a41.661,41.661,0,0,1,6.032-7.63c5.777-6.105,13.438-8.062,22.721-6.7,14.721,2.159,29.146,5.257,43.52,8.556,16.428,3.771,32.887,7.457,49.753,9.743,25.164,3.412,50.265,3.85,74.89-2.407,9.256-2.352,18.179-5.625,27.112-8.747,9.186-3.21,18.33-6.539,27.24-10.219a97.342,97.342,0,0,0,15.5-7.977c13.484-8.692,26.487-17.878,40.016-26.522,13.1-8.373,26.378-16.6,40.019-24.379,20.753-11.836,43.725-20.311,67.189-27.924,20.452-6.636,40.513-13.925,60-22.309a361.03,361.03,0,0,1,64.054-21.031c23.026-5.146,46.318-6.222,69.718-2.245a188.457,188.457,0,0,1,23.63,6.031,462.616,462.616,0,0,1,86.572,36.366c3.983,2.181,7.97,4.363,12.037,6.439a353.837,353.837,0,0,1,51.244,32.182c4.3,3.217,8.845,6.218,13.278,9.318v11.708c-9.2-6.752-18.3-13.606-27.631-20.235-19.642-13.947-40.982-26.056-62.952-37.406a144.674,144.674,0,0,0-48.1-15.406c-8.016-1.035-16.184-1.3-24.286-1.889-6.11-.444-12.248-.7-18.332-1.315-5.221-.526-9.381-2.7-11.459-6.746-5.765-11.236-17.215-15.058-30.983-15.79-13.22-.7-26.054,1.285-38.693,4.188a304,304,0,0,0-50.852,16.439c-22.387,9.508-45.539,17.536-69.072,24.915-25.492,7.993-49.773,17.844-71.86,31.057-13.667,8.175-26.651,17.017-39.182,26.3-10.356,7.668-20.487,15.536-30.807,23.236-3.533,2.636-7.214,5.166-11.057,7.494a47.682,47.682,0,0,1-8.6,4.108q-16.486,5.883-33.137,11.461a178.714,178.714,0,0,1-40.79,9.02,192.625,192.625,0,0,1-39.512-.563c-20.7-2.344-40.55-7.449-60.45-12.38-14.666-3.634-29.288-7.4-44.4-9.684-1.835-.277-3.661-.622-5.512-.793a22.874,22.874,0,0,0-17.883,5.741,36.948,36.948,0,0,0-9.214,12.833c-3.092,6.732-4.689,13.763-6.242,20.8-2.427,10.992-5.181,21.909-10.434,32.3a88.516,88.516,0,0,1-35.5,37.712,87.485,87.485,0,0,1-49.233,11.958c-7.523-.385-14.87-1.635-21.5-4.616a38.076,38.076,0,0,1-9.2-5.615c-5.069-4.382-4.506-9.249,1.314-12.933a75.929,75.929,0,0,1,9.564-4.7c5.488-2.458,11.209-4.6,16.545-7.25,9.76-4.852,17.462-11.365,22.474-19.818,6.96-11.74,7.214-23.867,2.621-36.107-7.372-19.646-23.869-31.807-47.8-37.682a161.363,161.363,0,0,0-27.957-3.8c-19.282-1.267-38.56-2.569-57.85-3.739-5.851-.355-11.738-.462-17.607-.44-13.75.052-27.431-.133-41.13-1.639-19.877-2.185-39.932-2.118-59.969-1.828-24.424.353-48.85.594-73.275.89-.529.007-1.057.095-1.584.145Z" transform="translate(-2 -512.685)"/><path class="c" d="M1203.519,720.687c-8.293-4.734-16.424-9.67-24.91-14.163-25.74-13.629-52.749-25.463-80.2-36.616-11.082-4.5-22.366-8.723-33.818-12.559a105.927,105.927,0,0,0-35.116-5.6,86.311,86.311,0,0,0-19.749,2.325c-21.418,5.33-43.2,9.618-64.629,14.877-28.688,7.041-55.877,17.156-82.068,28.934q-31.356,14.1-63.913,26.211c-18.8,7.023-36.818,15.268-54.7,23.7-17.193,8.111-34.564,15.957-53.046,22.016-4.693,1.539-9.451,3.014-14.314,4.129a189.11,189.11,0,0,0-34.7,11.618c-6.2,2.759-12.374,5.56-18.609,8.266-20.961,9.094-43.326,14.463-66.893,16.753a288.752,288.752,0,0,1-61.064-.649c-16.763-1.927-33.458-4.239-50.2-6.282-7.776-.949-15.59-1.7-23.4-2.471-7.073-.7-12.582,1.546-16.34,6.364a104.029,104.029,0,0,0-6.344,9.39c-4.13,6.678-8.031,13.449-12.225,20.1a72.222,72.222,0,0,1-6.754,9.2c-6.563,7.47-12.294,7.776-20.143,1.077-3.209-2.739-6.008-5.8-8.918-8.764-4.075-4.151-7.914-8.462-12.144-12.5-12.339-11.794-28.061-19.654-45.874-24.61-11.831-3.292-23.989-5.856-36.112-8.394a305.292,305.292,0,0,1-50.876-15.4c-17.712-7.078-35.478-14.072-53.368-20.847-13.933-5.277-28.343-9.6-43.6-11.608a186.9,186.9,0,0,0-20.284-1.658c-13.338-.288-26.69-.088-40.034-.22-14.808-.147-29.614-.445-44.422-.662-.917-.013-1.837.1-2.755.162V731.745c12.131.359,24.259.878,36.394,1.035,14.279.186,28.564.092,42.846.059a170.845,170.845,0,0,1,58.247,10.334c11.585,4.139,22.88,8.852,34.077,13.657,15.335,6.581,30.472,13.467,45.658,20.275,16.122,7.227,33.416,11.919,51.108,15.787,12.5,2.733,24.845,5.837,36.614,10.312,14.7,5.592,27.586,13.121,38.213,23.152,3.915,3.7,7.967,7.3,12.088,10.847a33.783,33.783,0,0,0,5.478,3.778c5.392,3.027,10.064,2.8,14.809-.931a30.735,30.735,0,0,0,6.25-6.3c3.8-5.459,7.3-11.066,10.7-16.7,1.814-3.009,3.129-6.214,4.746-9.3a47.719,47.719,0,0,1,2.78-4.68c3.655-5.384,9.356-7.5,16.753-6.664,19.419,2.2,38.821,4.491,58.25,6.627,19.465,2.14,39.01,3.519,58.675,2.7,29.705-1.241,58.017-6.821,84.309-18.409q9.147-4.032,18.163-8.26a178.028,178.028,0,0,1,46.062-14.529c13.678-2.3,26.514-6.618,38.94-11.687,9.773-3.987,19.315-8.344,29.01-12.459,16.314-6.924,32.458-14.144,49.058-20.586,21.933-8.511,43.117-18.133,64.512-27.452a551.32,551.32,0,0,1,83.755-29.125c2.8-.715,5.612-1.405,8.459-1.974a312.6,312.6,0,0,0,35.979-9.874,204.036,204.036,0,0,1,21.962-6c12.873-2.667,25.7-1.422,38.337,1.5a195.149,195.149,0,0,1,30.5,9.747c29.146,12.022,58.313,24.019,87.194,36.453,10.925,4.7,21.088,10.572,31.6,15.91Z" transform="translate(-2 -435.141)"/><path class="c" d="M2,1873.731a27.951,27.951,0,0,0,3.154.271c16.4-.385,32.819-.547,49.2-1.268,22.271-.981,44.536-1.512,66.811-.564,28.112,1.2,56.2,2.736,84.316,3.881,15.32.624,30.67.856,46.01,1.056,19.086.249,38.17.585,57.114,2.611,30.568,3.269,60.876,7.654,90.634,14.359,9.674,2.18,19.025,4.757,27.86,8.784,12.99,5.92,27.377,8.39,42.029,9.861,5.282.53,10.589.9,15.884,1.336h-80.1c-4.013-1.7-7.95-3.534-12.06-5.06a139.725,139.725,0,0,0-14.772-4.92A494.012,494.012,0,0,0,260.23,1889.3c-17.617-.076-35.242-.291-52.846-.812-39.222-1.161-78.429-2.079-117.694-1.2-29.216.657-58.459.528-87.689.748Z" transform="translate(-2 -1263.612)"/><path class="c" d="M367.262,1970.943H2v-14.96c12.411,0,24.822-.023,37.232.007q114.1.279,228.2.582a394.827,394.827,0,0,1,85.312,9.966C357.7,1967.647,362.428,1969.457,367.262,1970.943Z" transform="translate(-2 -1320.497)"/><path class="c" d="M1772.958,2c-.559,2.332-1.212,4.653-1.66,7-1.468,7.68.513,15.109,2.94,22.433,2.7,8.147,5.993,16.164,8.671,24.315a45.738,45.738,0,0,1,2.139,11.187c.346,5.207-1.859,7.555-7.84,9.271-9.36,2.686-18.961,4.558-28.938,4.448-14.666-.162-29.33-.5-43.991-.876-7.059-.18-14.132-.42-21.153-1a52.439,52.439,0,0,1-11.208-2.2c-5.989-1.874-9-5.752-8.653-10.945a46.648,46.648,0,0,1,1.919-9.253c1.115-4.007,2.677-7.933,3.745-11.947,2.166-8.137.238-15.7-5.388-22.64-1.613-1.988-3.546-3.813-5.039-5.855a47.764,47.764,0,0,1-5.1-8.012c-1.138-2.49-3.591-3.961-5.4-5.919h48.061c3.655.429,7.3.963,10.968,1.264,6.363.522,12.777.7,19.1,1.422a37.723,37.723,0,0,1,8.995,2.519,3.977,3.977,0,0,1,2.237,2.742c.181,1.444-1.441,2.27-3.075,2.573a22.634,22.634,0,0,1-5.127.5c-4.655-.227-9.294-.669-13.943-.989-5.984-.412-11.984-.86-17.928.235-8.084,1.49-10.993,4.449-10.791,11.221.12,4,.662,8,.9,12,.277,4.653.336,9.315.657,13.965.445,6.456,4.4,10.987,11.738,13.534,1.1.382,2.221.748,3.364,1.036a85.215,85.215,0,0,0,32.428,1.694c15.384-2.073,28.043-16.725,25.42-27.607-.538-2.229-.861-4.492-1.34-6.73-.571-2.667-1.24-5.32-1.8-7.988-1.578-7.47-.892-14.676,3.884-21.389Z" transform="translate(-988.767 -2)"/><path class="c" d="M1520.433,2a57.789,57.789,0,0,1,10.4,7.992c1.954,1.932,5.028,3.15,7.7,4.561,4.023,2.124,8.311,3.94,12.177,6.231,12.639,7.49,15.694,16.166,9.685,27.855-2.1,4.08-4.932,7.912-7.485,11.834-2.119,3.254-4.458,6.417-6.453,9.718a15.133,15.133,0,0,0-.542,15.426,56.588,56.588,0,0,0,9.554,13.85c4.587,4.843,8.753,5.833,15.777,3.738,3.375-1.007,6.642-2.258,9.921-3.465,17.907-6.59,36.647-8.882,56.2-7.569a262.075,262.075,0,0,1,30,3.856c9.785,1.8,19.527,2.274,29.237-.282.507-.134,1.025-.244,1.527-.388,7.894-2.273,11.273-5.839,11.085-12.663a32.313,32.313,0,0,0-1.955-10.55c-2.792-7.332-6.242-14.5-9.3-21.766-3.313-7.88-6.744-15.737-9.639-23.72-2.519-6.944-3.019-14.061-.464-21.159a27.222,27.222,0,0,0,.782-3.5h5.607c-.769,2.63-1.571,5.254-2.3,7.892-1.59,5.765-.506,11.43,1.183,17.036,2.77,9.2,7.552,17.79,12.087,26.465,3.854,7.372,7.58,14.8,11.01,22.3a35.433,35.433,0,0,1,3.125,15.634c-.141,6.929-3.777,12-11.337,15.28a48.778,48.778,0,0,1-32.106,2.892c-3.692-.924-7.317-2.037-10.924-3.166a115.977,115.977,0,0,0-37.13-5.6,82.736,82.736,0,0,0-30.744,6.345,93.749,93.749,0,0,0-23.051,13.905c-3.4,2.76-6.682,5.611-10.093,8.359a35.658,35.658,0,0,1-4.845,3.387c-3.435,1.931-5.693,1.409-7.2-1.7a36.456,36.456,0,0,1-1.924-5.626c-1.836-6.209-3.173-12.545-5.563-18.608a86.241,86.241,0,0,0-8.513-16.435c-5.905-8.8-5.275-16.9,1.742-24.982,3.455-3.982,6.584-8.157,9.7-12.322a29.03,29.03,0,0,0,5.363-10.79q1.831-7.945-5.014-13.75a33.41,33.41,0,0,0-11.953-6.387c-6.1-1.876-12.355-3.429-18.537-5.135-3.154-.871-6.334-1.692-9.428-2.688-2.3-.741-4.207-1.98-4.782-4.078-.564-2.056-2.223-3.371-4.13-4.626-1.709-1.124-3.27-2.4-4.9-3.6Z" transform="translate(-896.445 -2)"/><path class="c" d="M2257.214,2a37.545,37.545,0,0,0,3.736,2.218c12.216,5.549,24.544,10.94,36.66,16.628a108.779,108.779,0,0,1,13.013,7.533,31.382,31.382,0,0,1,6.2,5.464c2.715,3.043,2.654,6.32-.13,9.36-1.826,1.994-3.981,3.786-5.911,5.72a64.8,64.8,0,0,0-6.093,6.419c-6.35,8.457-4.157,17.6,5.536,23.658a42.53,42.53,0,0,0,21.968,6.173c28.006.537,50.916-7.822,66.62-27a89.719,89.719,0,0,1,29.508-23.358q15.944-8.09,31.415-16.789c9.5-5.363,19.82-7.572,31.309-7.195a272.865,272.865,0,0,1,55.1,7.329c.891.214,1.756.5,2.633.751v5.854a206.036,206.036,0,0,0-36.884-7.13c-5.675-.611-11.408-.985-17.128-1.152a43.407,43.407,0,0,0-20.666,4.281c-14.5,7.166-28.435,15.017-40.664,24.626a94.251,94.251,0,0,0-12.358,11.91c-16.7,18.96-39.743,29.778-67.278,34.755-12.76,2.306-25.659,2.688-38.416-.322-7.687-1.813-14.558-4.837-20.192-9.528-10.18-8.477-13.511-18.446-9.538-29.881a80.548,80.548,0,0,1,4.091-9.505c3.661-7.322,1.816-13.667-5.216-18.9a130.361,130.361,0,0,0-14.276-9.393c-6.477-3.613-13.368-6.733-20.054-10.1-1.458-.734-2.806-1.613-4.2-2.425Z" transform="translate(-1347.264 -2)"/><path class="c" d="M52.464,2c-.941,1.009-.287,1.634.859,1.97,2.377.7,4.761,1.407,7.2,1.929,13.941,2.981,27.867,6.086,40.553,11.787,9.671,4.347,19.06,9.124,28.41,13.922,11.609,5.957,22.94,12.273,34.6,18.167a156.976,156.976,0,0,0,26.25,10.295,65.873,65.873,0,0,0,40.589-.465c9.243-3.1,18.442-6.28,27.633-9.478,22.862-7.954,46.7-13.5,70.623-18.806,29.2-6.477,58.777-11.662,88.323-16.954,2.858-.512,5.7-1.137,8.479-1.873a26.869,26.869,0,0,0,3.965-1.784C426.13,6.478,420.323,5.063,416.124,2h30.438c1.031.66,2.017,1.372,3.1,1.97,3.092,1.7,6.274,3.3,9.309,5.068a22.806,22.806,0,0,1,3.226,2.9,65.44,65.44,0,0,1-6.841,2.288c-6.838,1.444-13.716,2.77-20.6,4.052-34.834,6.484-69.7,12.851-104.1,20.781-23.759,5.478-47.29,11.457-69.589,20.255-9,3.55-18.026,7.059-27.166,10.355-15.294,5.516-30.684,5.119-45.746-.5a157.73,157.73,0,0,1-19.571-8.8c-9.332-5.028-18.226-10.59-27.337-15.891-11.385-6.625-22.415-13.718-34.28-19.72C77.85,10.02,46.141,5,12.217,9.708Q7.11,10.417,2,11.106V8.5a23.583,23.583,0,0,0,3.122-.189q7.71-1.48,15.384-3.08c2.041-.427,4.052-.963,6.042-1.528.917-.26,1.632-.76,1.085-1.708Z" transform="translate(-2 -2)"/><path class="c" d="M2,139.92a23.621,23.621,0,0,0,3.122-.382,94,94,0,0,1,38.34-1.677c12.312,1.9,24.722,3.382,37.037,5.272a117.207,117.207,0,0,1,33.794,10.6c5.373,2.623,10.757,5.237,16.234,7.712a50.492,50.492,0,0,0,8.028,2.89c5.731,1.491,8.257-.333,7.3-5.1a21.8,21.8,0,0,0-1.284-4.422c-9.327-21.423-21.662-41.5-40.786-58.376A84.711,84.711,0,0,0,59.858,75.816a124.376,124.376,0,0,0-32.663-.584C18.752,76.148,10.4,77.577,2,78.778V74.225c4.878-.543,9.75-1.129,14.636-1.622,13.155-1.326,26.328-1.727,39.484-.077a94.063,94.063,0,0,1,47.807,20.213c12.411,9.868,22.14,21.364,30.644,33.571,10.058,14.438,18.653,29.467,26.878,44.636a26.283,26.283,0,0,1,2.459,6.158c.612,2.482-.7,3.551-3.786,3.062a34.421,34.421,0,0,1-7.554-2.04c-5.355-2.19-10.585-4.586-15.806-6.986q-4.524-2.08-8.855-4.434c-15.2-8.246-31.934-13.286-49.779-16.27q-17.219-2.879-34.2-6.659c-12.783-2.831-25.273-2.764-37.7,1.034-1.362.416-2.81.647-4.219.964Z" transform="translate(-2 -48.857)"/><path class="c" d="M445.605,2c1.153.514,2.337.986,3.45,1.552,1.083.55,2.092,1.194,3.064,1.757-.827,2.154-2.887,2.648-4.714,3.12-5.835,1.508-11.73,2.864-17.612,4.248Q404.852,18.547,379.9,24.4a162.51,162.51,0,0,1-24.593,4.217,87.347,87.347,0,0,1-37.079-4.952c-14.2-5.186-28.088-10.954-42.046-16.576-2.431-.979-5.208-2.1-4.4-5.088h17.622c-1.021,1.4-.413,2.525,1.028,3.377a24.628,24.628,0,0,0,4.39,2.232c8.8,3.059,17.538,6.29,26.524,8.956a83.611,83.611,0,0,0,30.73,2.848c16.036-1.321,31.193-5.4,46.084-10.2a13.809,13.809,0,0,0,2.755-1.3c1.474-.873,1.612-1.934.314-3.011-1.2-.994-2.456-1.94-3.687-2.907Z" transform="translate(-163.649 -2)"/><path class="c" d="M2501.417,2c-7.515,3.69-15.01,7.407-22.549,11.064-13.522,6.559-28.263,9.954-43.866,11.2-18.136,1.446-35.557-1.434-52.763-5.6-16.876-4.089-33.186-9.427-49.345-15.077A19.153,19.153,0,0,1,2330,2h20.827a23.3,23.3,0,0,0,3.651,1.649c15.227,4.048,30.71,7.255,46.694,8.495,15.8,1.224,31.438.461,46.6-3.709,5.667-1.558,11.2-3.408,15.992-6.435Z" transform="translate(-1397.621 -2)"/><path class="c" d="M224.694,2c-.439,1.724.5,2.945,2.22,3.817,1.468.743,2.969,1.45,4.5,2.1,13.685,5.829,27.345,11.7,41.091,17.433,5.682,2.37,11.485,4.567,17.349,6.627a96.185,96.185,0,0,0,55.46,2.782c11.876-2.859,23.626-6.1,35.6-8.645,26.41-5.618,52.927-10.906,79.4-16.331,2.325-.476,4.679-.882,6.955-1.481a38.312,38.312,0,0,0,4.2-1.615c-.824-2.762-4.171-2.967-5.665-4.69h21.627c1.591.963,3.224,1.883,4.758,2.9,1.171.777,2.218,1.677,3.406,2.586-1.695,1.677-3.654,2.038-5.577,2.407-11.674,2.24-23.382,4.368-35.026,6.7-33.138,6.643-66.127,13.7-98.419,22.776-11.277,3.168-22.858,5.2-34.951,4.232A103.167,103.167,0,0,1,293.2,37.29c-9.649-3.661-19.137-7.646-28.434-11.869-13.5-6.134-26.972-12.3-41.108-17.438-1.94-.706-3.794-1.582-5.631-2.457C216.4,4.753,215.527,3.6,215.882,2Z" transform="translate(-130.174 -2)"/><path class="c" d="M1842,1982.57c4.919-.84,9.8-1.9,14.764-2.48,18.982-2.2,37.968-4.39,57-6.29a158.116,158.116,0,0,1,30.708.359c19.19,1.829,38.263,4.229,57.1,7.755a22.126,22.126,0,0,1,2.231.656Z" transform="translate(-1105.068 -1332.124)"/><path class="c" d="M421.374,2c.919.775,1.878,1.521,2.749,2.33,1.68,1.558,1.58,2.551-.58,3.715a24.023,24.023,0,0,1-4.289,1.724c-23.939,7.382-47.308,5.939-70.164-3.067a23.882,23.882,0,0,1-2.729-1.349c-1.548-.85-2.025-1.958-1.083-3.353h12.816c-.493,1.723.316,2.9,2.283,3.592.73.258,1.435.565,2.18.789A82.653,82.653,0,0,0,396.213,9.39a42.945,42.945,0,0,0,8.047-1.708c3.282-1.05,3.431-2.231,1.009-4.251-.539-.45-1.013-.952-1.517-1.43Z" transform="translate(-207.503 -2)"/><path class="c" d="M2963.633,6.553c-7.836-1.255-15.674-2.5-23.5-3.784A11.941,11.941,0,0,1,2938,2h25.633Z" transform="translate(-1762.113 -2)"/><path class="c" d="M811.813,520.943a33.414,33.414,0,0,1-3.857,1.337,100.249,100.249,0,0,1-21.024,1.909c-27.339.18-53.577-3.985-78.492-13.266-12.973-4.832-25.9-9.738-38.883-14.558-13.28-4.931-26.97-8.836-41.54-10.325-4.759-.486-9.563-.775-14.358-.922a62.073,62.073,0,0,1-24.336-5.773,197.777,197.777,0,0,1-32.193-19.231,124.707,124.707,0,0,1-11.836-9.67,27.349,27.349,0,0,1-5.1-6.558c-2.552-4.441-1.867-8.79,2.3-12.362a61.2,61.2,0,0,1,9.675-6.751c9.041-5.1,19.294-7.829,30.08-9.2,8.969-1.142,17.973-1.852,27.094-.933,7.979.8,14.542,3.577,19.4,8.722A109.049,109.049,0,0,1,637,433.328c5.58,7.521,10.97,15.148,17.97,21.883,30.2,29.064,67.556,48.812,113.6,57.056,12.5,2.238,25.1,4.088,37.642,6.172,1.888.314,3.7.939,5.542,1.421Q811.785,520.4,811.813,520.943ZM688.407,492.792l.57-.875a22.725,22.725,0,0,0-2.4-2.829c-2.913-2.53-5.849-5.052-8.939-7.437-17.005-13.124-32.054-27.518-43.981-44a86.344,86.344,0,0,0-7.767-9.051,30.338,30.338,0,0,0-19.145-9.182,83.369,83.369,0,0,0-43.624,6.64,41.627,41.627,0,0,0-9.961,6.411c-5.121,4.4-5.588,9.068-1.737,14.281a36.87,36.87,0,0,0,6.365,6.635,130.137,130.137,0,0,0,33.389,19.353,67.018,67.018,0,0,0,22.7,4.647c5.845.236,11.706.738,17.481,1.509,13.751,1.836,26.81,5.605,39.714,9.777,4.328,1.4,8.761,2.595,13.2,3.76A24.148,24.148,0,0,0,688.407,492.792Z" transform="translate(-323.746 -280.155)"/><path class="c" d="M2119.024,67.389c-.307,2.147-.761,5.7-1.349,9.235a11.065,11.065,0,0,1-1.121,3.111c-1.936,3.817-5.255,5.053-9.963,3.5a31.086,31.086,0,0,1-6.583-3.033c-10.439-6.49-18.692-14.5-24.541-24.075-2.146-3.512-3.631-7.215-3.549-11.225.111-5.435,3.622-9.488,9.931-11.413a27.12,27.12,0,0,1,16.781.513c8.125,2.684,13.477,7.577,16.726,14.11C2118.209,53.845,2118.706,59.887,2119.024,67.389Zm-18.557-12c-.469-4.1-2.123-7.646-6.913-9.6-4.39-1.789-8.328.265-7.937,4.208.436,4.405,3.369,7.684,8.112,9.747,3.013,1.31,5.454.257,6.353-2.46A15.44,15.44,0,0,0,2100.467,55.387Z" transform="translate(-1242.901 -22.504)"/><path class="c" d="M34.25,135.688c-5.73,0-11.46.036-17.188-.022a27.7,27.7,0,0,1-5.139-.482c-3.534-.711-4.292-2.268-2.189-4.758a20.348,20.348,0,0,1,4.331-3.781c8.812-5.79,19-9.064,30.115-10.544,12.627-1.682,24.718-.532,35.924,4.786,7.5,3.561,13.664,8.3,18.013,14.44a15.617,15.617,0,0,1,2.468,5.414c.5,2.181-.67,3.124-3.353,2.855a46.44,46.44,0,0,1-6.556-1.362c-6.867-1.716-13.629-3.773-20.594-5.158-9.77-1.943-19.817-1.933-29.83-1.826-2,.021-4,0-6,0Q34.25,135.471,34.25,135.688Z" transform="translate(-5.938 -78.509)"/><path class="c" d="M2105.33,1153.878c-.231,16.174-7.168,29.894-23.36,39.792a57.5,57.5,0,0,1-43.828,7.321c-13.753-3.086-23.219-10.011-26.171-21.76-1.505-5.99-.312-11.855,2.417-17.523,3.107-6.453,7.887-12.034,13.7-17.037a120.743,120.743,0,0,1,35.314-21,68.733,68.733,0,0,1,12.027-3.451c9.446-1.789,16.407.62,21.6,7.263,5.428,6.946,7.575,14.725,8.292,22.819C2105.421,1151.492,2105.33,1152.688,2105.33,1153.878Zm-55.023,38.344c16.97.035,31.019-8.492,34.949-20.352a21.922,21.922,0,0,0,1.032-9.295c-1.2-10.14-10.244-15.656-22.634-13.827-12.509,1.847-22.57,7.115-29.833,15.592a22.308,22.308,0,0,0-4.2,7.655c-2.306,7.234,1.54,13.976,9.584,17.624A29.278,29.278,0,0,0,2050.307,1192.222Z" transform="translate(-1206.57 -756.166)"/><path class="c" d="M1044.362,211c5.368.308,10.419.586,15.467.9a14.9,14.9,0,0,1,2.348.386c5.185,1.173,6.665,3.23,5.3,7.514-.533,1.675-1.329,3.294-1.923,4.958-1.956,5.479-.459,8.741,5.883,11.242a106.569,106.569,0,0,0,13.1,3.935c6.494,1.63,13.118,2.917,19.61,4.552a74.409,74.409,0,0,1,9.993,3.284c11.5,4.711,17.327,12.519,18.307,22.815.93,9.758-1.9,18.933-6.882,27.723-8.061,14.23-20.566,25.474-35.886,34.756-21,12.721-44.614,20.161-70.565,22.779a218.955,218.955,0,0,1-93.96-10.683c-19.73-6.763-36.74-16.7-49.852-30.672a60.035,60.035,0,0,1-10.019-14.015c-5.256-10.444-5.392-20.879.26-31.246,1.835-3.365,3.856-6.669,5.956-9.931,3.353-5.209,4.629-10.533,2.368-16.3-1.972-5.03.168-9.081,5.57-11.714a97.821,97.821,0,0,1,13.925-5.618c13.153-4.059,26.914-6.207,40.8-7.812,18.1-2.093,36.315-3.265,54.558-4.155C1007.357,212.789,1026,211.893,1044.362,211ZM1000.2,354.46c5.054-.419,13.987-.848,22.794-1.946,25.038-3.121,47.616-11.019,67.415-23.917,14.279-9.3,25.807-20.38,32.559-34.4,3.241-6.728,5.149-13.672,4.5-20.952-.913-10.179-6.88-17.592-18.467-21.8a51.054,51.054,0,0,0-8.253-2.437c-8.972-1.624-18.011-3.007-27.009-4.54-8.475-1.444-16.986-2.787-25.379-4.5-6.67-1.364-12.12-4.4-15.935-9.209a16.357,16.357,0,0,0-10.648-5.883,128.414,128.414,0,0,0-15.428-1.69,358.479,358.479,0,0,0-62.539,3.832,122.665,122.665,0,0,0-22.7,5.128c-5.364,1.865-10.353,4.268-13.5,8.355-5.377,6.99-12.445,12.677-19.9,18.145A71.158,71.158,0,0,0,873.9,271.242c-6.11,7.672-8.014,15.92-5.245,24.85,2.5,8.067,7.6,14.991,14.1,21.277,10.026,9.694,22.359,17.049,36.231,22.66C943.313,349.869,969.3,353.993,1000.2,354.46Z" transform="translate(-517.156 -143.031)"/><path class="c" d="M653.864,489.369c-19.1,1.674-33.436-4.056-46.313-12.8a32.8,32.8,0,0,1-7.405-7.155c-2.922-3.8-2.329-7.747,1.324-11.11a25.766,25.766,0,0,1,6.357-4.383,52.556,52.556,0,0,1,29.606-4.729,30.665,30.665,0,0,1,18.439,8.992,84.742,84.742,0,0,1,15.506,22.258,8.771,8.771,0,0,1,.4.917c1.739,4.843.216,6.784-6.01,7.66a21.817,21.817,0,0,1-2.767.334C659.4,489.392,655.8,489.369,653.864,489.369Zm-19.107-14.306c3.435-.228,6.785-.731,8.466-3.529,1.648-2.741.495-5.289-1.549-7.6-4.241-4.8-12.514-6.41-18.973-3.716-5.18,2.16-6.136,6.121-2.176,9.606C624.331,473.171,629.232,474.7,634.757,475.063Z" transform="translate(-359.472 -303.451)"/><path class="c" d="M1038.7,333.3c17.849.762,35.709,1.393,53.543,2.339,9.568.508,19.157,1.305,28.362,3.712a62.534,62.534,0,0,1,9.565,3.243c8.667,3.86,13.065,9.991,13.563,17.957.51,8.162-2.588,15.606-7.293,22.654-6.661,9.978-16.02,18.083-27.009,24.978-18.656,11.7-39.748,18.812-63.006,21.734a198.793,198.793,0,0,1-92.663-9.95c-13.843-4.929-26.1-11.784-35.92-21.257-5.387-5.2-9.529-10.95-11.306-17.7-2.067-7.849.153-14.81,6.438-20.947a51.853,51.853,0,0,1,14.9-9.709c12.079-5.516,25.135-8.911,38.5-11.626,21.911-4.452,44.214-5.633,66.7-5.262,1.867.031,3.736,0,5.6,0C1038.686,333.421,1038.691,333.363,1038.7,333.3Zm12.1,3.974-30.033.687a339.782,339.782,0,0,0-53.522,5.346c-12,2.2-23.73,5.073-34.679,9.751a53.766,53.766,0,0,0-14.144,8.415c-7.872,6.786-9.838,14.671-6.445,23.469,2.446,6.344,7.1,11.611,12.718,16.34,8.547,7.194,18.659,12.613,29.829,16.678,28.744,10.461,58.778,13.619,89.9,9.994,20.944-2.439,40.195-8.487,57.57-18.332,11.724-6.643,21.83-14.589,29.25-24.615,4.309-5.822,7.4-12.021,8.134-18.846.944-8.836-2.625-16.046-12.31-20.656a58.661,58.661,0,0,0-10.275-3.533,111.819,111.819,0,0,0-23.225-3.114C1078.387,338.169,1063.188,337.725,1050.8,337.279Z" transform="translate(-543.811 -225.557)"/><path class="c" d="M1077.9,361.5c10.35.436,22.742.854,35.113,1.522a86.116,86.116,0,0,1,19.543,3.216c15.262,4.462,21.164,13.772,16.785,26.469-3.035,8.8-9.281,16.032-17.025,22.45-15.626,12.951-34.667,21.1-56.076,25.76a168.69,168.69,0,0,1-39.189,3.838c-22.939-.446-44.988-4.166-65.517-12.821-9.556-4.028-18.2-9.044-25.079-15.874a32.462,32.462,0,0,1-7.38-10.346c-3.243-7.765-1.607-14.724,5.232-20.809,4.486-3.991,10.036-6.759,15.99-9.041,10.566-4.049,21.766-6.458,33.16-8.325a388.448,388.448,0,0,1,47.6-4.706C1052.643,362.375,1064.237,361.989,1077.9,361.5Zm-4.339,6.384c-5.651.194-14.715.475-23.775.825a414.877,414.877,0,0,0-49.612,4.746c-10.745,1.72-21.315,3.972-31.284,7.775a49.818,49.818,0,0,0-12.985,6.937c-7.743,6.034-9.287,13.593-4.371,21.333a35.84,35.84,0,0,0,8.808,9.19c7.828,5.929,17.008,10.085,26.908,13.188a169.088,169.088,0,0,0,60.807,7.353c18.91-1.087,36.766-5,53.367-12.476,11.44-5.154,21.557-11.616,29.4-20.229,3.923-4.31,6.96-8.974,8.3-14.283,1.964-7.762-1.432-14.4-10.042-18.12a63.841,63.841,0,0,0-13.47-3.929C1102.907,367.831,1089.918,368,1073.557,367.882Z" transform="translate(-562.806 -244.581)"/><path class="c" d="M1096.944,390.917c11.307.545,22.633.909,33.911,1.722,4.728.341,9.381,1.547,14.011,2.535a27.246,27.246,0,0,1,5.476,1.955c8.444,3.824,11.593,9.989,9.116,17.609a29.89,29.89,0,0,1-6.331,10.434c-6.419,7.259-14.75,12.792-24.127,17.315a136.21,136.21,0,0,1-47.513,12.669,161.022,161.022,0,0,1-59.517-5.316,91.614,91.614,0,0,1-22.922-9.8,38.586,38.586,0,0,1-10.886-9.433c-5.453-7.319-4.286-14.4,3.353-20.28,4.328-3.329,9.5-5.555,14.945-7.412,11.391-3.888,23.377-5.994,35.5-7.6C1060.146,392.9,1078.505,391.9,1096.944,390.917Zm-31.094,61.925c5.313-.335,10.647-.526,15.935-1.033a127.563,127.563,0,0,0,43.667-11.855,70.384,70.384,0,0,0,19.758-13.565,27.4,27.4,0,0,0,7.067-10.824c1.957-6.243-.431-11.541-7.218-14.82a51.457,51.457,0,0,0-10.267-3.5,108.646,108.646,0,0,0-24.127-2.542c-9.327-.105-18.668.1-27.992.387a348.592,348.592,0,0,0-47.579,4.691,131.517,131.517,0,0,0-26.58,6.932c-4.587,1.822-8.88,3.991-12.207,7.208-4.7,4.539-5.36,9.518-2.228,14.834a22.392,22.392,0,0,0,8.012,8,105.3,105.3,0,0,0,14.114,7.308C1031.811,450.3,1048.542,452.621,1065.85,452.842Z" transform="translate(-591.172 -264.432)"/><path class="c" d="M1143.295,437.425c6.866-.069,14.093.057,21.106,1.569a40.945,40.945,0,0,1,9.205,3.027c5.115,2.5,6.2,6.33,3.532,10.66a22.885,22.885,0,0,1-7.594,7.029c-7.407,4.66-15.851,7.518-24.871,9.36a106.752,106.752,0,0,1-45.865-.27,45.808,45.808,0,0,1-14.024-5.4c-8.316-5.177-8.163-11.3.5-16.059,7.1-3.9,15.235-5.678,23.485-7.085A198.34,198.34,0,0,1,1143.295,437.425Zm-8,6.824c-7.843.377-15.519,1.088-22.882,3.136a39.763,39.763,0,0,0-9.22,3.724c-4.115,2.4-4.052,5.739.19,7.941a33.939,33.939,0,0,0,9.5,3.168,65,65,0,0,0,29.884-1.72,46.2,46.2,0,0,0,8.507-3.507c2.807-1.481,5.605-3.372,4.885-6.516-.684-2.984-3.966-4-7.109-4.532C1144.522,445.177,1139.89,444.8,1135.3,444.249Z" transform="translate(-647.453 -295.805)"/></g></g></svg>