<?xml version="1.0" encoding="utf-8"?>
<!-- Generator: Adobe Illustrator 15.1.0, SVG Export Plug-In  -->
<!DOCTYPE svg PUBLIC "-//W3C//DTD SVG 1.1//EN" "http://www.w3.org/Graphics/SVG/1.1/DTD/svg11.dtd" [
	<!ENTITY ns_flows "http://ns.adobe.com/Flows/1.0/">
]>
<svg version="1.1"
	 xmlns="http://www.w3.org/2000/svg" xmlns:xlink="http://www.w3.org/1999/xlink" xmlns:a="http://ns.adobe.com/AdobeSVGViewerExtensions/3.0/"
	 x="0px" y="0px" width="581px" height="581px" viewBox="-80.325 0 581 581" enable-background="new -80.325 0 581 581"
	 xml:space="preserve">
<defs>
</defs>
<path d="M209.1,376.125c-28.05,0-51,22.95-51,51V530.4c0,28.05,22.95,51,51,51s51-22.95,51-51V427.125
	C260.1,399.075,237.15,376.125,209.1,376.125z"/>
<path d="M393.975,63.75H295.8C284.325,26.775,249.9,0,209.1,0s-75.225,26.775-86.7,63.75H25.5C11.475,63.75,0,75.225,0,89.25
	s11.475,25.5,25.5,25.5h98.175l0,0c6.375,21.675,20.4,39.525,39.525,51C94.35,186.15,43.35,249.9,43.35,325.125V459
	c0,22.95,19.125,42.075,42.075,42.075h34.425V428.4c0-49.727,40.8-90.525,90.525-90.525c49.725,0,90.524,40.8,90.524,90.525v72.675
	h34.426c22.949,0,42.074-19.125,42.074-42.075V326.399c0-75.226-51-140.25-119.851-159.375c19.125-11.475,33.15-29.325,39.525-51
	l0,0h98.175c14.024,0,25.5-11.475,25.5-25.5C419.475,75.225,408,63.75,393.975,63.75z M209.1,141.525c-28.05,0-51-22.95-51-51
	c0-28.05,22.95-51,51-51s51,22.95,51,51C261.375,118.575,238.425,141.525,209.1,141.525z"/>
</svg>
